<svg version="1.1" viewBox="0.0 0.0 987.2650918635171 769.0813648293963" fill="none" stroke="none" stroke-linecap="square" stroke-miterlimit="10" xmlns:xlink="http://www.w3.org/1999/xlink" xmlns="http://www.w3.org/2000/svg"><clipPath id="p.0"><path d="m0 0l987.2651 0l0 769.08136l-987.2651 0l0 -769.08136z" clip-rule="nonzero"/></clipPath><g clip-path="url(#p.0)"><path fill="#ffffff" d="m0 0l987.2651 0l0 769.08136l-987.2651 0z" fill-rule="evenodd"/><path fill="#ffffff" d="m516.7323 34.08418l0 0c0 -5.2417355 4.2492676 -9.491003 9.490967 -9.491003l229.30145 0c2.517212 0 4.9312744 0.9999428 6.7111816 2.77985c1.7799072 1.7799091 2.7798462 4.193983 2.7798462 6.711153l0 37.96287c0 5.2417374 -4.2492676 9.491005 -9.491028 9.491005l-229.30145 0l0 0c-5.241699 0 -9.490967 -4.2492676 -9.490967 -9.491005z" fill-rule="evenodd"/><path stroke="#000000" stroke-width="3.0" stroke-linejoin="round" stroke-linecap="butt" d="m516.7323 34.08418l0 0c0 -5.2417355 4.2492676 -9.491003 9.490967 -9.491003l229.30145 0c2.517212 0 4.9312744 0.9999428 6.7111816 2.77985c1.7799072 1.7799091 2.7798462 4.193983 2.7798462 6.711153l0 37.96287c0 5.2417374 -4.2492676 9.491005 -9.491028 9.491005l-229.30145 0l0 0c-5.241699 0 -9.490967 -4.2492676 -9.490967 -9.491005z" fill-rule="evenodd"/><path fill="#000000" d="m611.7 62.665615l0 -19.078125l2.53125 0l0 9.453125l9.46875 -9.453125l3.421875 0l-8.0 7.734375l8.359375 11.34375l-3.34375 0l-6.796875 -9.65625l-3.109375 3.046875l0 6.609375l-2.53125 0zm26.607605 -1.703125q-1.3125 1.109375 -2.515625 1.5625q-1.203125 0.453125 -2.578125 0.453125q-2.28125 0 -3.5 -1.109375q-1.21875 -1.109375 -1.21875 -2.84375q0 -1.015625 0.453125 -1.859375q0.46875 -0.84375 1.21875 -1.34375q0.75 -0.515625 1.6875 -0.765625q0.6875 -0.1875 2.078125 -0.359375q2.828125 -0.328125 4.171875 -0.796875q0.015625 -0.484375 0.015625 -0.625q0 -1.421875 -0.65625 -2.015625q-0.90625 -0.796875 -2.671875 -0.796875q-1.65625 0 -2.453125 0.59375q-0.78125 0.578125 -1.15625 2.046875l-2.296875 -0.3125q0.3125 -1.46875 1.03125 -2.375q0.71875 -0.90625 2.0625 -1.390625q1.359375 -0.5 3.140625 -0.5q1.78125 0 2.875 0.421875q1.109375 0.421875 1.625 1.046875q0.53125 0.625 0.734375 1.59375q0.125 0.59375 0.125 2.15625l0 3.125q0 3.265625 0.140625 4.140625q0.15625 0.859375 0.59375 1.65625l-2.4375 0q-0.375 -0.734375 -0.46875 -1.703125zm-0.203125 -5.234375q-1.265625 0.515625 -3.828125 0.890625q-1.4375 0.203125 -2.046875 0.46875q-0.59375 0.25 -0.921875 0.75q-0.3125 0.5 -0.3125 1.125q0 0.9375 0.703125 1.5625q0.703125 0.625 2.078125 0.625q1.34375 0 2.390625 -0.59375q1.0625 -0.59375 1.5625 -1.625q0.375 -0.796875 0.375 -2.34375l0 -0.859375zm5.996826 6.9375l0 -13.828125l2.109375 0l0 1.96875q1.53125 -2.28125 4.40625 -2.28125q1.25 0 2.296875 0.453125q1.046875 0.453125 1.5625 1.1875q0.53125 0.71875 0.734375 1.71875q0.125 0.65625 0.125 2.28125l0 8.5l-2.34375 0l0 -8.40625q0 -1.4375 -0.28125 -2.140625q-0.265625 -0.71875 -0.96875 -1.140625q-0.6875 -0.421875 -1.625 -0.421875q-1.484375 0 -2.578125 0.953125q-1.09375 0.953125 -1.09375 3.609375l0 7.546875l-2.34375 0zm13.965576 -6.90625q0 -3.84375 2.125 -5.6875q1.78125 -1.546875 4.34375 -1.546875q2.859375 0 4.65625 1.875q1.8125 1.859375 1.8125 5.15625q0 2.671875 -0.796875 4.203125q-0.796875 1.53125 -2.328125 2.375q-1.53125 0.84375 -3.34375 0.84375q-2.890625 0 -4.6875 -1.859375q-1.78125 -1.859375 -1.78125 -5.359375zm2.40625 0q0 2.65625 1.15625 3.984375q1.15625 1.3125 2.90625 1.3125q1.75 0 2.90625 -1.328125q1.15625 -1.328125 1.15625 -4.046875q0 -2.5625 -1.171875 -3.890625q-1.15625 -1.328125 -2.890625 -1.328125q-1.75 0 -2.90625 1.328125q-1.15625 1.3125 -1.15625 3.96875z" fill-rule="nonzero"/><path fill="#ffffff" d="m516.7323 162.08418l0 0c0 -5.241745 4.2492676 -9.491013 9.490967 -9.491013l229.30145 0c2.517212 0 4.9312744 0.9999542 6.7111816 2.7798615c1.7799072 1.7799072 2.7798462 4.1939697 2.7798462 6.711151l0 37.962875c0 5.2417297 -4.2492676 9.490997 -9.491028 9.490997l-229.30145 0l0 0c-5.241699 0 -9.490967 -4.2492676 -9.490967 -9.490997z" fill-rule="evenodd"/><path stroke="#000000" stroke-width="3.0" stroke-linejoin="round" stroke-linecap="butt" d="m516.7323 162.08418l0 0c0 -5.241745 4.2492676 -9.491013 9.490967 -9.491013l229.30145 0c2.517212 0 4.9312744 0.9999542 6.7111816 2.7798615c1.7799072 1.7799072 2.7798462 4.1939697 2.7798462 6.711151l0 37.962875c0 5.2417297 -4.2492676 9.490997 -9.491028 9.490997l-229.30145 0l0 0c-5.241699 0 -9.490967 -4.2492676 -9.490967 -9.490997z" fill-rule="evenodd"/><path fill="#000000" d="m596.87506 190.66562l0 -19.078125l2.53125 0l0 9.453125l9.46875 -9.453125l3.421875 0l-8.0 7.734375l8.359375 11.34375l-3.34375 0l-6.796875 -9.65625l-3.109375 3.046875l0 6.609375l-2.53125 0zm26.607605 -1.703125q-1.3125 1.109375 -2.515625 1.5625q-1.203125 0.453125 -2.578125 0.453125q-2.28125 0 -3.5 -1.109375q-1.21875 -1.109375 -1.21875 -2.84375q0 -1.015625 0.453125 -1.859375q0.46875 -0.84375 1.21875 -1.34375q0.75 -0.515625 1.6875 -0.765625q0.6875 -0.1875 2.078125 -0.359375q2.828125 -0.328125 4.171875 -0.796875q0.015625 -0.484375 0.015625 -0.625q0 -1.421875 -0.65625 -2.015625q-0.90625 -0.796875 -2.671875 -0.796875q-1.65625 0 -2.453125 0.59375q-0.78125 0.578125 -1.15625 2.046875l-2.296875 -0.3125q0.3125 -1.46875 1.03125 -2.375q0.71875 -0.90625 2.0625 -1.390625q1.359375 -0.5 3.140625 -0.5q1.78125 0 2.875 0.421875q1.109375 0.421875 1.625 1.046875q0.53125 0.625 0.734375 1.59375q0.125 0.59375 0.125 2.15625l0 3.125q0 3.265625 0.140625 4.140625q0.15625 0.859375 0.59375 1.65625l-2.4375 0q-0.375 -0.734375 -0.46875 -1.703125zm-0.203125 -5.234375q-1.265625 0.515625 -3.828125 0.890625q-1.4375 0.203125 -2.046875 0.46875q-0.59375 0.25 -0.921875 0.75q-0.3125 0.5 -0.3125 1.125q0 0.9375 0.703125 1.5625q0.703125 0.625 2.078125 0.625q1.34375 0 2.390625 -0.59375q1.0625 -0.59375 1.5625 -1.625q0.375 -0.796875 0.375 -2.34375l0 -0.859375zm14.965576 6.9375l0 -1.75q-1.3125 2.0625 -3.859375 2.0625q-1.65625 0 -3.046875 -0.90625q-1.375 -0.921875 -2.140625 -2.546875q-0.765625 -1.640625 -0.765625 -3.75q0 -2.078125 0.6875 -3.765625q0.703125 -1.6875 2.078125 -2.578125q1.375 -0.90625 3.078125 -0.90625q1.25 0 2.21875 0.53125q0.984375 0.53125 1.59375 1.375l0 -6.84375l2.34375 0l0 19.078125l-2.1875 0zm-7.40625 -6.890625q0 2.640625 1.125 3.96875q1.125 1.3125 2.640625 1.3125q1.53125 0 2.609375 -1.25q1.078125 -1.265625 1.078125 -3.84375q0 -2.84375 -1.09375 -4.171875q-1.09375 -1.328125 -2.703125 -1.328125q-1.546875 0 -2.609375 1.28125q-1.046875 1.28125 -1.046875 4.03125zm22.324951 6.890625l0 -2.03125q-1.609375 2.34375 -4.375 2.34375q-1.234375 0 -2.296875 -0.46875q-1.0625 -0.46875 -1.578125 -1.171875q-0.5 -0.71875 -0.71875 -1.75q-0.140625 -0.6875 -0.140625 -2.1875l0 -8.5625l2.34375 0l0 7.671875q0 1.828125 0.140625 2.46875q0.21875 0.921875 0.9375 1.453125q0.71875 0.53125 1.765625 0.53125q1.0625 0 1.984375 -0.53125q0.921875 -0.546875 1.296875 -1.46875q0.390625 -0.9375 0.390625 -2.71875l0 -7.40625l2.34375 0l0 13.828125l-2.09375 0zm5.762451 0l0 -13.828125l2.109375 0l0 1.96875q1.53125 -2.28125 4.40625 -2.28125q1.25 0 2.296875 0.453125q1.046875 0.453125 1.5625 1.1875q0.53125 0.71875 0.734375 1.71875q0.125 0.65625 0.125 2.28125l0 8.5l-2.34375 0l0 -8.40625q0 -1.4375 -0.28125 -2.140625q-0.265625 -0.71875 -0.96875 -1.140625q-0.6875 -0.421875 -1.625 -0.421875q-1.484375 0 -2.578125 0.953125q-1.09375 0.953125 -1.09375 3.609375l0 7.546875l-2.34375 0zm23.85614 -1.703125q-1.3125 1.109375 -2.515625 1.5625q-1.203125 0.453125 -2.578125 0.453125q-2.28125 0 -3.5 -1.109375q-1.21875 -1.109375 -1.21875 -2.84375q0 -1.015625 0.453125 -1.859375q0.46875 -0.84375 1.21875 -1.34375q0.75 -0.515625 1.6875 -0.765625q0.6875 -0.1875 2.078125 -0.359375q2.828125 -0.328125 4.171875 -0.796875q0.015625 -0.484375 0.015625 -0.625q0 -1.421875 -0.65625 -2.015625q-0.90625 -0.796875 -2.671875 -0.796875q-1.65625 0 -2.453125 0.59375q-0.78125 0.578125 -1.15625 2.046875l-2.296875 -0.3125q0.3125 -1.46875 1.03125 -2.375q0.71875 -0.90625 2.0625 -1.390625q1.359375 -0.5 3.140625 -0.5q1.78125 0 2.875 0.421875q1.109375 0.421875 1.625 1.046875q0.53125 0.625 0.734375 1.59375q0.125 0.59375 0.125 2.15625l0 3.125q0 3.265625 0.140625 4.140625q0.15625 0.859375 0.59375 1.65625l-2.4375 0q-0.375 -0.734375 -0.46875 -1.703125zm-0.203125 -5.234375q-1.265625 0.515625 -3.828125 0.890625q-1.4375 0.203125 -2.046875 0.46875q-0.59375 0.25 -0.921875 0.75q-0.3125 0.5 -0.3125 1.125q0 0.9375 0.703125 1.5625q0.703125 0.625 2.078125 0.625q1.34375 0 2.390625 -0.59375q1.0625 -0.59375 1.5625 -1.625q0.375 -0.796875 0.375 -2.34375l0 -0.859375z" fill-rule="nonzero"/><path fill="#ffffff" d="m516.7323 290.08417l0 0c0 -5.2417297 4.2492676 -9.490997 9.490967 -9.490997l229.30145 0c2.517212 0 4.9312744 0.99993896 6.7111816 2.7798462c1.7799072 1.7799072 2.7798462 4.1940002 2.7798462 6.711151l0 37.96289c0 5.2417297 -4.2492676 9.490997 -9.491028 9.490997l-229.30145 0l0 0c-5.241699 0 -9.490967 -4.2492676 -9.490967 -9.490997z" fill-rule="evenodd"/><path stroke="#000000" stroke-width="3.0" stroke-linejoin="round" stroke-linecap="butt" d="m516.7323 290.08417l0 0c0 -5.2417297 4.2492676 -9.490997 9.490967 -9.490997l229.30145 0c2.517212 0 4.9312744 0.99993896 6.7111816 2.7798462c1.7799072 1.7799072 2.7798462 4.1940002 2.7798462 6.711151l0 37.96289c0 5.2417297 -4.2492676 9.490997 -9.491028 9.490997l-229.30145 0l0 0c-5.241699 0 -9.490967 -4.2492676 -9.490967 -9.490997z" fill-rule="evenodd"/><path fill="#000000" d="m606.7545 318.66562l7.3125 -19.078125l2.734375 0l7.796875 19.078125l-2.875 0l-2.21875 -5.78125l-7.984375 0l-2.09375 5.78125l-2.671875 0zm5.5 -7.828125l6.46875 0l-2.0 -5.296875q-0.90625 -2.40625 -1.34375 -3.953125q-0.375 1.84375 -1.03125 3.640625l-2.09375 5.609375zm16.232666 7.828125l-2.171875 0l0 -19.078125l2.34375 0l0 6.796875q1.484375 -1.859375 3.78125 -1.859375q1.28125 0 2.40625 0.515625q1.140625 0.515625 1.875 1.453125q0.75 0.921875 1.15625 2.25q0.421875 1.3125 0.421875 2.796875q0 3.5625 -1.765625 5.5q-1.75 1.9375 -4.21875 1.9375q-2.4375 0 -3.828125 -2.046875l0 1.734375zm-0.03125 -7.015625q0 2.484375 0.671875 3.59375q1.109375 1.8125 3.0 1.8125q1.53125 0 2.65625 -1.328125q1.125 -1.34375 1.125 -3.984375q0 -2.703125 -1.078125 -3.984375q-1.078125 -1.296875 -2.59375 -1.296875q-1.546875 0 -2.671875 1.328125q-1.109375 1.328125 -1.109375 3.859375zm21.746765 7.015625l0 -2.03125q-1.609375 2.34375 -4.375 2.34375q-1.234375 0 -2.296875 -0.46875q-1.0625 -0.46875 -1.578125 -1.171875q-0.5 -0.71875 -0.71875 -1.75q-0.140625 -0.6875 -0.140625 -2.1875l0 -8.5625l2.34375 0l0 7.671875q0 1.828125 0.140625 2.46875q0.21875 0.921875 0.9375 1.453125q0.71875 0.53125 1.765625 0.53125q1.0625 0 1.984375 -0.53125q0.921875 -0.546875 1.296875 -1.46875q0.390625 -0.9375 0.390625 -2.71875l0 -7.40625l2.34375 0l0 13.828125l-2.09375 0zm5.762451 -16.359375l0 -2.71875l2.34375 0l0 2.71875l-2.34375 0zm-2.96875 21.71875l0.4375 -1.984375q0.703125 0.171875 1.109375 0.171875q0.71875 0 1.0625 -0.46875q0.359375 -0.46875 0.359375 -2.375l0 -14.53125l2.34375 0l0 14.578125q0 2.5625 -0.671875 3.5625q-0.84375 1.296875 -2.8125 1.296875q-0.953125 0 -1.828125 -0.25zm17.92218 -7.0625q-1.3125 1.109375 -2.515625 1.5625q-1.203125 0.453125 -2.578125 0.453125q-2.28125 0 -3.5 -1.109375q-1.21875 -1.109375 -1.21875 -2.84375q0 -1.015625 0.453125 -1.859375q0.46875 -0.84375 1.21875 -1.34375q0.75 -0.515625 1.6875 -0.765625q0.6875 -0.1875 2.078125 -0.359375q2.828125 -0.328125 4.171875 -0.796875q0.015625 -0.484375 0.015625 -0.625q0 -1.421875 -0.65625 -2.015625q-0.90625 -0.796875 -2.671875 -0.796875q-1.65625 0 -2.453125 0.59375q-0.78125 0.578125 -1.15625 2.046875l-2.296875 -0.3125q0.3125 -1.46875 1.03125 -2.375q0.71875 -0.90625 2.0625 -1.390625q1.359375 -0.5 3.140625 -0.5q1.78125 0 2.875 0.421875q1.109375 0.421875 1.625 1.046875q0.53125 0.625 0.734375 1.59375q0.125 0.59375 0.125 2.15625l0 3.125q0 3.265625 0.140625 4.140625q0.15625 0.859375 0.59375 1.65625l-2.4375 0q-0.375 -0.734375 -0.46875 -1.703125zm-0.203125 -5.234375q-1.265625 0.515625 -3.828125 0.890625q-1.4375 0.203125 -2.046875 0.46875q-0.59375 0.25 -0.921875 0.75q-0.3125 0.5 -0.3125 1.125q0 0.9375 0.703125 1.5625q0.703125 0.625 2.078125 0.625q1.34375 0 2.390625 -0.59375q1.0625 -0.59375 1.5625 -1.625q0.375 -0.796875 0.375 -2.34375l0 -0.859375z" fill-rule="nonzero"/><path fill="#ffffff" d="m205.36482 370.92407l0 0c0 -5.2417297 4.2492676 -9.490997 9.491013 -9.490997l229.30145 0c2.5171814 0 4.931244 0.99993896 6.711151 2.7798462c1.7799072 1.7799072 2.7798462 4.1939697 2.7798462 6.711151l0 37.96289c0 5.2417297 -4.2492676 9.490997 -9.490997 9.490997l-229.30145 0l0 0c-5.241745 0 -9.491013 -4.2492676 -9.491013 -9.490997z" fill-rule="evenodd"/><path stroke="#000000" stroke-width="3.0" stroke-linejoin="round" stroke-linecap="butt" d="m205.36482 370.92407l0 0c0 -5.2417297 4.2492676 -9.490997 9.491013 -9.490997l229.30145 0c2.5171814 0 4.931244 0.99993896 6.711151 2.7798462c1.7799072 1.7799072 2.7798462 4.1939697 2.7798462 6.711151l0 37.96289c0 5.2417297 -4.2492676 9.490997 -9.490997 9.490997l-229.30145 0l0 0c-5.241745 0 -9.491013 -4.2492676 -9.491013 -9.490997z" fill-rule="evenodd"/><path fill="#000000" d="m291.22562 399.50552l0 -19.078125l2.53125 0l0 19.078125l-2.53125 0zm8.843475 0l-2.171875 0l0 -19.078125l2.34375 0l0 6.796875q1.484375 -1.859375 3.78125 -1.859375q1.28125 0 2.40625 0.515625q1.140625 0.515625 1.875 1.453125q0.75 0.921875 1.15625 2.25q0.421875 1.3125 0.421875 2.796875q0 3.5625 -1.765625 5.5q-1.75 1.9375 -4.21875 1.9375q-2.4375 0 -3.828125 -2.046875l0 1.734375zm-0.03125 -7.015625q0 2.484375 0.671875 3.59375q1.109375 1.8125 3.0 1.8125q1.53125 0 2.65625 -1.328125q1.125 -1.34375 1.125 -3.984375q0 -2.703125 -1.078125 -3.984375q-1.078125 -1.296875 -2.59375 -1.296875q-1.546875 0 -2.671875 1.328125q-1.109375 1.328125 -1.109375 3.859375zm21.715546 5.3125q-1.3125 1.109375 -2.515625 1.5625q-1.203125 0.453125 -2.578125 0.453125q-2.28125 0 -3.5 -1.109375q-1.21875 -1.109375 -1.21875 -2.84375q0 -1.015625 0.453125 -1.859375q0.46875 -0.84375 1.21875 -1.34375q0.75 -0.515625 1.6875 -0.765625q0.6875 -0.1875 2.078125 -0.359375q2.828125 -0.328125 4.171875 -0.796875q0.015625 -0.484375 0.015625 -0.625q0 -1.421875 -0.65625 -2.015625q-0.90625 -0.796875 -2.671875 -0.796875q-1.65625 0 -2.453125 0.59375q-0.78125 0.578125 -1.15625 2.046875l-2.296875 -0.3125q0.3125 -1.46875 1.03125 -2.375q0.71875 -0.90625 2.0625 -1.390625q1.359375 -0.5 3.140625 -0.5q1.78125 0 2.875 0.421875q1.109375 0.421875 1.625 1.046875q0.53125 0.625 0.734375 1.59375q0.125 0.59375 0.125 2.15625l0 3.125q0 3.265625 0.140625 4.140625q0.15625 0.859375 0.59375 1.65625l-2.4375 0q-0.375 -0.734375 -0.46875 -1.703125zm-0.203125 -5.234375q-1.265625 0.515625 -3.828125 0.890625q-1.4375 0.203125 -2.046875 0.46875q-0.59375 0.25 -0.921875 0.75q-0.3125 0.5 -0.3125 1.125q0 0.9375 0.703125 1.5625q0.703125 0.625 2.078125 0.625q1.34375 0 2.390625 -0.59375q1.0625 -0.59375 1.5625 -1.625q0.375 -0.796875 0.375 -2.34375l0 -0.859375zm14.965576 6.9375l0 -1.75q-1.3125 2.0625 -3.859375 2.0625q-1.65625 0 -3.046875 -0.90625q-1.375 -0.921875 -2.140625 -2.546875q-0.765625 -1.640625 -0.765625 -3.75q0 -2.078125 0.6875 -3.765625q0.703125 -1.6875 2.078125 -2.578125q1.375 -0.90625 3.078125 -0.90625q1.25 0 2.21875 0.53125q0.984375 0.53125 1.59375 1.375l0 -6.84375l2.34375 0l0 19.078125l-2.1875 0zm-7.40625 -6.890625q0 2.640625 1.125 3.96875q1.125 1.3125 2.640625 1.3125q1.53125 0 2.609375 -1.25q1.078125 -1.265625 1.078125 -3.84375q0 -2.84375 -1.09375 -4.171875q-1.09375 -1.328125 -2.703125 -1.328125q-1.546875 0 -2.609375 1.28125q-1.046875 1.28125 -1.046875 4.03125zm22.29367 5.1875q-1.3125 1.109375 -2.515625 1.5625q-1.203125 0.453125 -2.578125 0.453125q-2.28125 0 -3.5 -1.109375q-1.21875 -1.109375 -1.21875 -2.84375q0 -1.015625 0.453125 -1.859375q0.46875 -0.84375 1.21875 -1.34375q0.75 -0.515625 1.6875 -0.765625q0.6875 -0.1875 2.078125 -0.359375q2.828125 -0.328125 4.171875 -0.796875q0.015625 -0.484375 0.015625 -0.625q0 -1.421875 -0.65625 -2.015625q-0.90625 -0.796875 -2.671875 -0.796875q-1.65625 0 -2.453125 0.59375q-0.78125 0.578125 -1.15625 2.046875l-2.296875 -0.3125q0.3125 -1.46875 1.03125 -2.375q0.71875 -0.90625 2.0625 -1.390625q1.359375 -0.5 3.140625 -0.5q1.78125 0 2.875 0.421875q1.109375 0.421875 1.625 1.046875q0.53125 0.625 0.734375 1.59375q0.125 0.59375 0.125 2.15625l0 3.125q0 3.265625 0.140625 4.140625q0.15625 0.859375 0.59375 1.65625l-2.4375 0q-0.375 -0.734375 -0.46875 -1.703125zm-0.203125 -5.234375q-1.265625 0.515625 -3.828125 0.890625q-1.4375 0.203125 -2.046875 0.46875q-0.59375 0.25 -0.921875 0.75q-0.3125 0.5 -0.3125 1.125q0 0.9375 0.703125 1.5625q0.703125 0.625 2.078125 0.625q1.34375 0 2.390625 -0.59375q1.0625 -0.59375 1.5625 -1.625q0.375 -0.796875 0.375 -2.34375l0 -0.859375zm5.996826 6.9375l0 -13.828125l2.109375 0l0 1.96875q1.53125 -2.28125 4.40625 -2.28125q1.25 0 2.296875 0.453125q1.046875 0.453125 1.5625 1.1875q0.53125 0.71875 0.734375 1.71875q0.125 0.65625 0.125 2.28125l0 8.5l-2.34375 0l0 -8.40625q0 -1.4375 -0.28125 -2.140625q-0.265625 -0.71875 -0.96875 -1.140625q-0.6875 -0.421875 -1.625 -0.421875q-1.484375 0 -2.578125 0.953125q-1.09375 0.953125 -1.09375 3.609375l0 7.546875l-2.34375 0z" fill-rule="nonzero"/><path fill="#ffffff" d="m25.259842 505.5356l0 0c0 -5.2417297 4.2492676 -9.490997 9.491005 -9.490997l229.30145 0c2.5171814 0 4.931244 0.99993896 6.711151 2.7798462c1.7799072 1.7799072 2.7798462 4.1940002 2.7798462 6.711151l0 37.96286c0 5.2417603 -4.2492676 9.491028 -9.490997 9.491028l-229.30145 0l0 0c-5.2417374 0 -9.491005 -4.2492676 -9.491005 -9.491028z" fill-rule="evenodd"/><path stroke="#000000" stroke-width="3.0" stroke-linejoin="round" stroke-linecap="butt" d="m25.259842 505.5356l0 0c0 -5.2417297 4.2492676 -9.490997 9.491005 -9.490997l229.30145 0c2.5171814 0 4.931244 0.99993896 6.711151 2.7798462c1.7799072 1.7799072 2.7798462 4.1940002 2.7798462 6.711151l0 37.96286c0 5.2417603 -4.2492676 9.491028 -9.490997 9.491028l-229.30145 0l0 0c-5.2417374 0 -9.491005 -4.2492676 -9.491005 -9.491028z" fill-rule="evenodd"/><path fill="#000000" d="m115.04077 534.11707l0 -19.078125l2.53125 0l0 16.828125l9.390625 0l0 2.25l-11.921875 0zm23.65306 -1.703125q-1.3125 1.109375 -2.515625 1.5625q-1.203125 0.453125 -2.578125 0.453125q-2.28125 0 -3.5 -1.109375q-1.21875 -1.109375 -1.21875 -2.84375q0 -1.015625 0.453125 -1.859375q0.46875 -0.84375 1.21875 -1.34375q0.75 -0.515625 1.6875 -0.765625q0.6875 -0.1875 2.078125 -0.359375q2.828125 -0.328125 4.171875 -0.796875q0.015625 -0.484375 0.015625 -0.625q0 -1.421875 -0.65625 -2.015625q-0.90625 -0.796875 -2.671875 -0.796875q-1.65625 0 -2.453125 0.59375q-0.78125 0.578125 -1.15625 2.046875l-2.296875 -0.3125q0.3125 -1.46875 1.03125 -2.375q0.71875 -0.90625 2.0625 -1.390625q1.359375 -0.5 3.140625 -0.5q1.78125 0 2.875 0.421875q1.109375 0.421875 1.625 1.046875q0.53125 0.625 0.734375 1.59375q0.125 0.59375 0.125 2.15625l0 3.125q0 3.265625 0.140625 4.140625q0.15625 0.859375 0.59375 1.65625l-2.4375 0q-0.375 -0.734375 -0.46875 -1.703125zm-0.203125 -5.234375q-1.265625 0.515625 -3.828125 0.890625q-1.4375 0.203125 -2.046875 0.46875q-0.59375 0.25 -0.921875 0.75q-0.3125 0.5 -0.3125 1.125q0 0.9375 0.703125 1.5625q0.703125 0.625 2.078125 0.625q1.34375 0 2.390625 -0.59375q1.0625 -0.59375 1.5625 -1.625q0.375 -0.796875 0.375 -2.34375l0 -0.859375zm5.574936 8.078125l2.28125 0.34375q0.140625 1.046875 0.796875 1.53125q0.859375 0.65625 2.375 0.65625q1.625 0 2.5 -0.65625q0.890625 -0.640625 1.203125 -1.8125q0.1875 -0.71875 0.171875 -3.015625q-1.53125 1.8125 -3.828125 1.8125q-2.84375 0 -4.40625 -2.046875q-1.5625 -2.0625 -1.5625 -4.9375q0 -1.984375 0.71875 -3.65625q0.71875 -1.671875 2.078125 -2.578125q1.359375 -0.921875 3.1875 -0.921875q2.453125 0 4.03125 1.984375l0 -1.671875l2.171875 0l0 11.953125q0 3.234375 -0.65625 4.578125q-0.65625 1.34375 -2.09375 2.125q-1.421875 0.78125 -3.5 0.78125q-2.46875 0 -4.0 -1.109375q-1.515625 -1.109375 -1.46875 -3.359375zm1.9375 -8.296875q0 2.71875 1.078125 3.96875q1.078125 1.25 2.703125 1.25q1.625 0 2.71875 -1.234375q1.09375 -1.25 1.09375 -3.90625q0 -2.546875 -1.125 -3.828125q-1.125 -1.296875 -2.71875 -1.296875q-1.5625 0 -2.65625 1.28125q-1.09375 1.265625 -1.09375 3.765625zm12.449936 0.25q0 -3.84375 2.125 -5.6875q1.78125 -1.546875 4.34375 -1.546875q2.859375 0 4.65625 1.875q1.8125 1.859375 1.8125 5.15625q0 2.671875 -0.796875 4.203125q-0.796875 1.53125 -2.328125 2.375q-1.53125 0.84375 -3.34375 0.84375q-2.890625 0 -4.6875 -1.859375q-1.78125 -1.859375 -1.78125 -5.359375zm2.40625 0q0 2.65625 1.15625 3.984375q1.15625 1.3125 2.90625 1.3125q1.75 0 2.90625 -1.328125q1.15625 -1.328125 1.15625 -4.046875q0 -2.5625 -1.171875 -3.890625q-1.15625 -1.328125 -2.890625 -1.328125q-1.75 0 -2.90625 1.328125q-1.15625 1.3125 -1.15625 3.96875zm12.340546 2.78125l2.328125 -0.359375q0.1875 1.390625 1.078125 2.140625q0.890625 0.734375 2.5 0.734375q1.609375 0 2.390625 -0.65625q0.78125 -0.65625 0.78125 -1.546875q0 -0.796875 -0.6875 -1.25q-0.484375 -0.3125 -2.390625 -0.796875q-2.578125 -0.65625 -3.578125 -1.125q-1.0 -0.46875 -1.515625 -1.3125q-0.515625 -0.84375 -0.515625 -1.859375q0 -0.921875 0.421875 -1.703125q0.4375 -0.796875 1.15625 -1.3125q0.546875 -0.40625 1.484375 -0.6875q0.953125 -0.28125 2.03125 -0.28125q1.625 0 2.859375 0.46875q1.234375 0.46875 1.8125 1.28125q0.59375 0.796875 0.8125 2.140625l-2.296875 0.3125q-0.15625 -1.078125 -0.90625 -1.671875q-0.75 -0.59375 -2.109375 -0.59375q-1.609375 0 -2.3125 0.53125q-0.6875 0.53125 -0.6875 1.25q0 0.453125 0.296875 0.8125q0.28125 0.375 0.890625 0.625q0.359375 0.140625 2.078125 0.609375q2.484375 0.65625 3.46875 1.078125q0.984375 0.421875 1.53125 1.234375q0.5625 0.796875 0.5625 2.0q0 1.171875 -0.6875 2.21875q-0.671875 1.03125 -1.96875 1.59375q-1.28125 0.5625 -2.90625 0.5625q-2.703125 0 -4.125 -1.109375q-1.40625 -1.125 -1.796875 -3.328125z" fill-rule="nonzero"/><path fill="#ffffff" d="m329.09186 575.13403l0 0c0 -5.241699 4.2492676 -9.490967 9.490997 -9.490967l229.30148 0c2.5171509 0 4.9312134 0.99993896 6.7111206 2.7798462c1.7799072 1.7799072 2.7798462 4.1939697 2.7798462 6.7111206l0 37.96289c0 5.2417603 -4.2492676 9.491028 -9.490967 9.491028l-229.30148 0l0 0c-5.2417297 0 -9.490997 -4.2492676 -9.490997 -9.491028z" fill-rule="evenodd"/><path stroke="#000000" stroke-width="3.0" stroke-linejoin="round" stroke-linecap="butt" d="m329.09186 575.13403l0 0c0 -5.241699 4.2492676 -9.490967 9.490997 -9.490967l229.30148 0c2.5171509 0 4.9312134 0.99993896 6.7111206 2.7798462c1.7799072 1.7799072 2.7798462 4.1939697 2.7798462 6.7111206l0 37.96289c0 5.2417603 -4.2492676 9.491028 -9.490967 9.491028l-229.30148 0l0 0c-5.2417297 0 -9.490997 -4.2492676 -9.490997 -9.491028z" fill-rule="evenodd"/><path fill="#000000" d="m394.44223 603.71545l0 -19.078125l7.15625 0q2.1875 0 3.5 0.578125q1.328125 0.578125 2.078125 1.78125q0.75 1.203125 0.75 2.515625q0 1.21875 -0.671875 2.3125q-0.65625 1.078125 -2.0 1.734375q1.734375 0.515625 2.65625 1.734375q0.9375 1.21875 0.9375 2.890625q0 1.34375 -0.5625 2.5q-0.5625 1.140625 -1.40625 1.765625q-0.828125 0.625 -2.09375 0.953125q-1.25 0.3125 -3.0625 0.3125l-7.28125 0zm2.53125 -11.0625l4.125 0q1.671875 0 2.40625 -0.21875q0.953125 -0.296875 1.4375 -0.953125q0.5 -0.671875 0.5 -1.671875q0 -0.9375 -0.453125 -1.65625q-0.453125 -0.734375 -1.3125 -1.0q-0.84375 -0.265625 -2.890625 -0.265625l-3.8125 0l0 5.765625zm0 8.8125l4.75 0q1.21875 0 1.71875 -0.09375q0.859375 -0.15625 1.4375 -0.515625q0.59375 -0.375 0.96875 -1.0625q0.390625 -0.703125 0.390625 -1.609375q0 -1.0625 -0.546875 -1.84375q-0.546875 -0.796875 -1.515625 -1.109375q-0.96875 -0.328125 -2.796875 -0.328125l-4.40625 0l0 6.5625zm24.513885 -2.203125l2.421875 0.296875q-0.578125 2.125 -2.125 3.296875q-1.546875 1.171875 -3.953125 1.171875q-3.03125 0 -4.8125 -1.859375q-1.78125 -1.875 -1.78125 -5.25q0 -3.484375 1.796875 -5.40625q1.796875 -1.9375 4.671875 -1.9375q2.765625 0 4.515625 1.890625q1.765625 1.890625 1.765625 5.3125q0 0.203125 -0.015625 0.625l-10.3125 0q0.140625 2.28125 1.296875 3.5q1.15625 1.203125 2.890625 1.203125q1.28125 0 2.1875 -0.671875q0.921875 -0.6875 1.453125 -2.171875zm-7.6875 -3.78125l7.71875 0q-0.15625 -1.75 -0.890625 -2.625q-1.125 -1.34375 -2.90625 -1.34375q-1.609375 0 -2.71875 1.078125q-1.09375 1.078125 -1.203125 2.890625zm13.043701 8.234375l0 -13.828125l2.109375 0l0 1.96875q1.53125 -2.28125 4.40625 -2.28125q1.25 0 2.296875 0.453125q1.046875 0.453125 1.5625 1.1875q0.53125 0.71875 0.734375 1.71875q0.125 0.65625 0.125 2.28125l0 8.5l-2.34375 0l0 -8.40625q0 -1.4375 -0.28125 -2.140625q-0.265625 -0.71875 -0.96875 -1.140625q-0.6875 -0.421875 -1.625 -0.421875q-1.484375 0 -2.578125 0.953125q-1.09375 0.953125 -1.09375 3.609375l0 7.546875l-2.34375 0zm14.840546 -16.390625l0 -2.6875l2.34375 0l0 2.6875l-2.34375 0zm0 16.390625l0 -13.828125l2.34375 0l0 13.828125l-2.34375 0zm5.906555 0l0 -13.828125l2.109375 0l0 1.96875q1.53125 -2.28125 4.40625 -2.28125q1.25 0 2.296875 0.453125q1.046875 0.453125 1.5625 1.1875q0.53125 0.71875 0.734375 1.71875q0.125 0.65625 0.125 2.28125l0 8.5l-2.34375 0l0 -8.40625q0 -1.4375 -0.28125 -2.140625q-0.265625 -0.71875 -0.96875 -1.140625q-0.6875 -0.421875 -1.625 -0.421875q-1.484375 0 -2.578125 0.953125q-1.09375 0.953125 -1.09375 3.609375l0 7.546875l-2.34375 0zm36.15274 -6.6875l2.53125 0.640625q-0.796875 3.109375 -2.859375 4.75q-2.0625 1.625 -5.046875 1.625q-3.09375 0 -5.03125 -1.25q-1.921875 -1.265625 -2.9375 -3.640625q-1.0 -2.390625 -1.0 -5.125q0 -2.984375 1.140625 -5.203125q1.140625 -2.21875 3.234375 -3.359375q2.109375 -1.15625 4.625 -1.15625q2.875 0 4.828125 1.46875q1.953125 1.453125 2.71875 4.09375l-2.484375 0.578125q-0.671875 -2.078125 -1.9375 -3.03125q-1.25 -0.953125 -3.171875 -0.953125q-2.203125 0 -3.6875 1.0625q-1.46875 1.046875 -2.0625 2.828125q-0.59375 1.78125 -0.59375 3.65625q0 2.4375 0.703125 4.265625q0.703125 1.8125 2.203125 2.71875q1.5 0.890625 3.25 0.890625q2.109375 0 3.578125 -1.21875q1.484375 -1.234375 2.0 -3.640625zm5.344055 -9.703125l0 -2.6875l2.34375 0l0 2.6875l-2.34375 0zm0 16.390625l0 -13.828125l2.34375 0l0 13.828125l-2.34375 0zm11.031525 -2.09375l0.328125 2.0625q-0.984375 0.21875 -1.765625 0.21875q-1.265625 0 -1.96875 -0.40625q-0.703125 -0.40625 -1.0 -1.0625q-0.28125 -0.65625 -0.28125 -2.765625l0 -7.953125l-1.71875 0l0 -1.828125l1.71875 0l0 -3.421875l2.328125 -1.40625l0 4.828125l2.359375 0l0 1.828125l-2.359375 0l0 8.078125q0 1.0 0.125 1.296875q0.125 0.28125 0.40625 0.453125q0.28125 0.171875 0.796875 0.171875q0.390625 0 1.03125 -0.09375zm2.1872253 7.421875l-0.265625 -2.203125q0.765625 0.203125 1.34375 0.203125q0.78125 0 1.25 -0.265625q0.46875 -0.25 0.765625 -0.71875q0.21875 -0.359375 0.71875 -1.75q0.0625 -0.1875 0.203125 -0.5625l-5.25 -13.859375l2.53125 0l2.875 8.015625q0.5625 1.515625 1.0 3.203125q0.40625 -1.625 0.96875 -3.15625l2.953125 -8.0625l2.34375 0l-5.265625 14.0625q-0.84375 2.28125 -1.3125 3.140625q-0.625 1.15625 -1.4375 1.6875q-0.796875 0.546875 -1.921875 0.546875q-0.671875 0 -1.5 -0.28125z" fill-rule="nonzero"/><path fill="#ffffff" d="m599.15485 442.08417l0 0c0 -5.2417297 4.2492676 -9.490997 9.491028 -9.490997l229.30145 0c2.5171509 0 4.9312134 0.99993896 6.7111206 2.7798462c1.7799072 1.7799072 2.7798462 4.1940002 2.7798462 6.711151l0 37.96289c0 5.2417297 -4.2492676 9.490997 -9.490967 9.490997l-229.30145 0l0 0c-5.2417603 0 -9.491028 -4.2492676 -9.491028 -9.490997z" fill-rule="evenodd"/><path stroke="#000000" stroke-width="3.0" stroke-linejoin="round" stroke-linecap="butt" d="m599.15485 442.08417l0 0c0 -5.2417297 4.2492676 -9.490997 9.491028 -9.490997l229.30145 0c2.5171509 0 4.9312134 0.99993896 6.7111206 2.7798462c1.7799072 1.7799072 2.7798462 4.1940002 2.7798462 6.711151l0 37.96289c0 5.2417297 -4.2492676 9.490997 -9.490967 9.490997l-229.30145 0l0 0c-5.2417603 0 -9.491028 -4.2492676 -9.491028 -9.490997z" fill-rule="evenodd"/><path fill="#000000" d="m678.64526 461.36874q0 -4.75 2.546875 -7.4375q2.5625 -2.6875 6.59375 -2.6875q2.640625 0 4.765625 1.265625q2.125 1.265625 3.234375 3.53125q1.109375 2.25 1.109375 5.109375q0 2.90625 -1.171875 5.203125q-1.171875 2.28125 -3.3125 3.46875q-2.140625 1.171875 -4.640625 1.171875q-2.6875 0 -4.8125 -1.296875q-2.125 -1.3125 -3.21875 -3.5625q-1.09375 -2.25 -1.09375 -4.765625zm2.609375 0.046875q0 3.4375 1.84375 5.4375q1.859375 1.984375 4.671875 1.984375q2.84375 0 4.6875 -2.0q1.84375 -2.015625 1.84375 -5.703125q0 -2.328125 -0.796875 -4.0625q-0.78125 -1.734375 -2.296875 -2.6875q-1.515625 -0.96875 -3.40625 -0.96875q-2.6875 0 -4.625 1.84375q-1.921875 1.84375 -1.921875 6.15625zm18.593445 9.25l0 -13.828125l2.109375 0l0 1.96875q1.53125 -2.28125 4.40625 -2.28125q1.25 0 2.296875 0.453125q1.046875 0.453125 1.5625 1.1875q0.53125 0.71875 0.734375 1.71875q0.125 0.65625 0.125 2.28125l0 8.5l-2.34375 0l0 -8.40625q0 -1.4375 -0.28125 -2.140625q-0.265625 -0.71875 -0.96875 -1.140625q-0.6875 -0.421875 -1.625 -0.421875q-1.484375 0 -2.578125 0.953125q-1.09375 0.953125 -1.09375 3.609375l0 7.546875l-2.34375 0zm14.840576 -16.390625l0 -2.6875l2.34375 0l0 2.6875l-2.34375 0zm0 16.390625l0 -13.828125l2.34375 0l0 13.828125l-2.34375 0zm11.031555 -2.09375l0.328125 2.0625q-0.984375 0.21875 -1.765625 0.21875q-1.265625 0 -1.96875 -0.40625q-0.703125 -0.40625 -1.0 -1.0625q-0.28125 -0.65625 -0.28125 -2.765625l0 -7.953125l-1.71875 0l0 -1.828125l1.71875 0l0 -3.421875l2.328125 -1.40625l0 4.828125l2.359375 0l0 1.828125l-2.359375 0l0 8.078125q0 1.0 0.125 1.296875q0.125 0.28125 0.40625 0.453125q0.28125 0.171875 0.796875 0.171875q0.390625 0 1.03125 -0.09375zm1.3434448 -2.03125l2.328125 -0.359375q0.1875 1.390625 1.078125 2.140625q0.890625 0.734375 2.5 0.734375q1.609375 0 2.390625 -0.65625q0.78125 -0.65625 0.78125 -1.546875q0 -0.796875 -0.6875 -1.25q-0.484375 -0.3125 -2.390625 -0.796875q-2.578125 -0.65625 -3.578125 -1.125q-1.0 -0.46875 -1.515625 -1.3125q-0.515625 -0.84375 -0.515625 -1.859375q0 -0.921875 0.421875 -1.703125q0.4375 -0.796875 1.15625 -1.3125q0.546875 -0.40625 1.484375 -0.6875q0.953125 -0.28125 2.03125 -0.28125q1.625 0 2.859375 0.46875q1.234375 0.46875 1.8125 1.28125q0.59375 0.796875 0.8125 2.140625l-2.296875 0.3125q-0.15625 -1.078125 -0.90625 -1.671875q-0.75 -0.59375 -2.109375 -0.59375q-1.609375 0 -2.3125 0.53125q-0.6875 0.53125 -0.6875 1.25q0 0.453125 0.296875 0.8125q0.28125 0.375 0.890625 0.625q0.359375 0.140625 2.078125 0.609375q2.484375 0.65625 3.46875 1.078125q0.984375 0.421875 1.53125 1.234375q0.5625 0.796875 0.5625 2.0q0 1.171875 -0.6875 2.21875q-0.671875 1.03125 -1.96875 1.59375q-1.28125 0.5625 -2.90625 0.5625q-2.703125 0 -4.125 -1.109375q-1.40625 -1.125 -1.796875 -3.328125zm14.265625 4.125l0 -19.078125l2.34375 0l0 6.84375q1.640625 -1.90625 4.140625 -1.90625q1.546875 0 2.671875 0.609375q1.140625 0.609375 1.625 1.671875q0.484375 1.0625 0.484375 3.09375l0 8.765625l-2.34375 0l0 -8.765625q0 -1.75 -0.765625 -2.546875q-0.75 -0.8125 -2.15625 -0.8125q-1.03125 0 -1.953125 0.546875q-0.921875 0.546875 -1.3125 1.46875q-0.390625 0.921875 -0.390625 2.546875l0 7.5625l-2.34375 0zm23.856201 -1.703125q-1.3125 1.109375 -2.515625 1.5625q-1.203125 0.453125 -2.578125 0.453125q-2.28125 0 -3.5 -1.109375q-1.21875 -1.109375 -1.21875 -2.84375q0 -1.015625 0.453125 -1.859375q0.46875 -0.84375 1.21875 -1.34375q0.75 -0.515625 1.6875 -0.765625q0.6875 -0.1875 2.078125 -0.359375q2.828125 -0.328125 4.171875 -0.796875q0.015625 -0.484375 0.015625 -0.625q0 -1.421875 -0.65625 -2.015625q-0.90625 -0.796875 -2.671875 -0.796875q-1.65625 0 -2.453125 0.59375q-0.78125 0.578125 -1.15625 2.046875l-2.296875 -0.3125q0.3125 -1.46875 1.03125 -2.375q0.71875 -0.90625 2.0625 -1.390625q1.359375 -0.5 3.140625 -0.5q1.78125 0 2.875 0.421875q1.109375 0.421875 1.625 1.046875q0.53125 0.625 0.734375 1.59375q0.125 0.59375 0.125 2.15625l0 3.125q0 3.265625 0.140625 4.140625q0.15625 0.859375 0.59375 1.65625l-2.4375 0q-0.375 -0.734375 -0.46875 -1.703125zm-0.203125 -5.234375q-1.265625 0.515625 -3.828125 0.890625q-1.4375 0.203125 -2.046875 0.46875q-0.59375 0.25 -0.921875 0.75q-0.3125 0.5 -0.3125 1.125q0 0.9375 0.703125 1.5625q0.703125 0.625 2.078125 0.625q1.34375 0 2.390625 -0.59375q1.0625 -0.59375 1.5625 -1.625q0.375 -0.796875 0.375 -2.34375l0 -0.859375z" fill-rule="nonzero"/><path fill="#ffffff" d="m713.20734 575.13403l0 0c0 -5.241699 4.2492676 -9.490967 9.491028 -9.490967l229.30145 0c2.5171509 0 4.9312134 0.99993896 6.7111206 2.7798462c1.7799072 1.7799072 2.7798462 4.1939697 2.7798462 6.7111206l0 37.96289c0 5.2417603 -4.2492065 9.491028 -9.490967 9.491028l-229.30145 0l0 0c-5.2417603 0 -9.491028 -4.2492676 -9.491028 -9.491028z" fill-rule="evenodd"/><path stroke="#000000" stroke-width="3.0" stroke-linejoin="round" stroke-linecap="butt" d="m713.20734 575.13403l0 0c0 -5.241699 4.2492676 -9.490967 9.491028 -9.490967l229.30145 0c2.5171509 0 4.9312134 0.99993896 6.7111206 2.7798462c1.7799072 1.7799072 2.7798462 4.1939697 2.7798462 6.7111206l0 37.96289c0 5.2417603 -4.2492065 9.491028 -9.490967 9.491028l-229.30145 0l0 0c-5.2417603 0 -9.491028 -4.2492676 -9.491028 -9.491028z" fill-rule="evenodd"/><path fill="#000000" d="m813.60315 603.71545l7.3125 -19.078125l2.734375 0l7.796875 19.078125l-2.875 0l-2.21875 -5.78125l-7.984375 0l-2.09375 5.78125l-2.671875 0zm5.5 -7.828125l6.46875 0l-2.0 -5.296875q-0.90625 -2.40625 -1.34375 -3.953125q-0.375 1.84375 -1.03125 3.640625l-2.09375 5.609375zm16.232605 7.828125l-2.171875 0l0 -19.078125l2.34375 0l0 6.796875q1.484375 -1.859375 3.78125 -1.859375q1.28125 0 2.40625 0.515625q1.140625 0.515625 1.875 1.453125q0.75 0.921875 1.15625 2.25q0.421875 1.3125 0.421875 2.796875q0 3.5625 -1.765625 5.5q-1.75 1.9375 -4.21875 1.9375q-2.4375 0 -3.828125 -2.046875l0 1.734375zm-0.03125 -7.015625q0 2.484375 0.671875 3.59375q1.109375 1.8125 3.0 1.8125q1.53125 0 2.65625 -1.328125q1.125 -1.34375 1.125 -3.984375q0 -2.703125 -1.078125 -3.984375q-1.078125 -1.296875 -2.59375 -1.296875q-1.546875 0 -2.671875 1.328125q-1.109375 1.328125 -1.109375 3.859375zm21.715576 5.3125q-1.3125 1.109375 -2.515625 1.5625q-1.203125 0.453125 -2.578125 0.453125q-2.28125 0 -3.5 -1.109375q-1.21875 -1.109375 -1.21875 -2.84375q0 -1.015625 0.453125 -1.859375q0.46875 -0.84375 1.21875 -1.34375q0.75 -0.515625 1.6875 -0.765625q0.6875 -0.1875 2.078125 -0.359375q2.828125 -0.328125 4.171875 -0.796875q0.015625 -0.484375 0.015625 -0.625q0 -1.421875 -0.65625 -2.015625q-0.90625 -0.796875 -2.671875 -0.796875q-1.65625 0 -2.453125 0.59375q-0.78125 0.578125 -1.15625 2.046875l-2.296875 -0.3125q0.3125 -1.46875 1.03125 -2.375q0.71875 -0.90625 2.0625 -1.390625q1.359375 -0.5 3.140625 -0.5q1.78125 0 2.875 0.421875q1.109375 0.421875 1.625 1.046875q0.53125 0.625 0.734375 1.59375q0.125 0.59375 0.125 2.15625l0 3.125q0 3.265625 0.140625 4.140625q0.15625 0.859375 0.59375 1.65625l-2.4375 0q-0.375 -0.734375 -0.46875 -1.703125zm-0.203125 -5.234375q-1.265625 0.515625 -3.828125 0.890625q-1.4375 0.203125 -2.046875 0.46875q-0.59375 0.25 -0.921875 0.75q-0.3125 0.5 -0.3125 1.125q0 0.9375 0.703125 1.5625q0.703125 0.625 2.078125 0.625q1.34375 0 2.390625 -0.59375q1.0625 -0.59375 1.5625 -1.625q0.375 -0.796875 0.375 -2.34375l0 -0.859375z" fill-rule="nonzero"/><path fill="#ffffff" d="m516.7323 694.2574l0 0c0 -5.241699 4.2492676 -9.490967 9.490967 -9.490967l229.30145 0c2.517212 0 4.9312744 0.99993896 6.7111816 2.7798462c1.7799072 1.7799072 2.7798462 4.1939697 2.7798462 6.7111206l0 37.96289c0 5.2417603 -4.2492676 9.491028 -9.491028 9.491028l-229.30145 0l0 0c-5.241699 0 -9.490967 -4.2492676 -9.490967 -9.491028z" fill-rule="evenodd"/><path stroke="#000000" stroke-width="3.0" stroke-linejoin="round" stroke-linecap="butt" d="m516.7323 694.2574l0 0c0 -5.241699 4.2492676 -9.490967 9.490967 -9.490967l229.30145 0c2.517212 0 4.9312744 0.99993896 6.7111816 2.7798462c1.7799072 1.7799072 2.7798462 4.1939697 2.7798462 6.7111206l0 37.96289c0 5.2417603 -4.2492676 9.491028 -9.491028 9.491028l-229.30145 0l0 0c-5.241699 0 -9.490967 -4.2492676 -9.490967 -9.491028z" fill-rule="evenodd"/><path fill="#000000" d="m563.68365 722.83887l0 -19.078125l7.1875 0q1.90625 0 2.90625 0.171875q1.40625 0.234375 2.359375 0.90625q0.953125 0.65625 1.53125 1.84375q0.578125 1.171875 0.578125 2.59375q0 2.4375 -1.5625 4.125q-1.546875 1.6875 -5.59375 1.6875l-4.890625 0l0 7.75l-2.515625 0zm2.515625 -10.015625l4.9375 0q2.453125 0 3.46875 -0.90625q1.03125 -0.90625 1.03125 -2.5625q0 -1.203125 -0.609375 -2.046875q-0.59375 -0.859375 -1.59375 -1.125q-0.625 -0.171875 -2.34375 -0.171875l-4.890625 0l0 6.8125zm14.09198 3.109375q0 -3.84375 2.125 -5.6875q1.78125 -1.546875 4.34375 -1.546875q2.859375 0 4.65625 1.875q1.8125 1.859375 1.8125 5.15625q0 2.671875 -0.796875 4.203125q-0.796875 1.53125 -2.328125 2.375q-1.53125 0.84375 -3.34375 0.84375q-2.890625 0 -4.6875 -1.859375q-1.78125 -1.859375 -1.78125 -5.359375zm2.40625 0q0 2.65625 1.15625 3.984375q1.15625 1.3125 2.90625 1.3125q1.75 0 2.90625 -1.328125q1.15625 -1.328125 1.15625 -4.046875q0 -2.5625 -1.171875 -3.890625q-1.15625 -1.328125 -2.890625 -1.328125q-1.75 0 -2.90625 1.328125q-1.15625 1.3125 -1.15625 3.96875zm13.262451 6.90625l0 -13.828125l2.109375 0l0 2.09375q0.796875 -1.46875 1.484375 -1.9375q0.6875 -0.46875 1.5 -0.46875q1.1875 0 2.40625 0.765625l-0.796875 2.171875q-0.859375 -0.515625 -1.71875 -0.515625q-0.765625 0 -1.390625 0.46875q-0.609375 0.453125 -0.859375 1.28125q-0.390625 1.25 -0.390625 2.734375l0 7.234375l-2.34375 0zm14.017334 -2.09375l0.328125 2.0625q-0.984375 0.21875 -1.765625 0.21875q-1.265625 0 -1.96875 -0.40625q-0.703125 -0.40625 -1.0 -1.0625q-0.28125 -0.65625 -0.28125 -2.765625l0 -7.953125l-1.71875 0l0 -1.828125l1.71875 0l0 -3.421875l2.328125 -1.40625l0 4.828125l2.359375 0l0 1.828125l-2.359375 0l0 8.078125q0 1.0 0.125 1.296875q0.125 0.28125 0.40625 0.453125q0.28125 0.171875 0.796875 0.171875q0.390625 0 1.03125 -0.09375zm10.077576 2.09375l0 -19.078125l2.515625 0l0 7.828125l9.921875 0l0 -7.828125l2.53125 0l0 19.078125l-2.53125 0l0 -9.0l-9.921875 0l0 9.0l-2.515625 0zm27.89093 -1.703125q-1.3125 1.109375 -2.515625 1.5625q-1.203125 0.453125 -2.578125 0.453125q-2.28125 0 -3.5 -1.109375q-1.21875 -1.109375 -1.21875 -2.84375q0 -1.015625 0.453125 -1.859375q0.46875 -0.84375 1.21875 -1.34375q0.75 -0.515625 1.6875 -0.765625q0.6875 -0.1875 2.078125 -0.359375q2.828125 -0.328125 4.171875 -0.796875q0.015625 -0.484375 0.015625 -0.625q0 -1.421875 -0.65625 -2.015625q-0.90625 -0.796875 -2.671875 -0.796875q-1.65625 0 -2.453125 0.59375q-0.78125 0.578125 -1.15625 2.046875l-2.296875 -0.3125q0.3125 -1.46875 1.03125 -2.375q0.71875 -0.90625 2.0625 -1.390625q1.359375 -0.5 3.140625 -0.5q1.78125 0 2.875 0.421875q1.109375 0.421875 1.625 1.046875q0.53125 0.625 0.734375 1.59375q0.125 0.59375 0.125 2.15625l0 3.125q0 3.265625 0.140625 4.140625q0.15625 0.859375 0.59375 1.65625l-2.4375 0q-0.375 -0.734375 -0.46875 -1.703125zm-0.203125 -5.234375q-1.265625 0.515625 -3.828125 0.890625q-1.4375 0.203125 -2.046875 0.46875q-0.59375 0.25 -0.921875 0.75q-0.3125 0.5 -0.3125 1.125q0 0.9375 0.703125 1.5625q0.703125 0.625 2.078125 0.625q1.34375 0 2.390625 -0.59375q1.0625 -0.59375 1.5625 -1.625q0.375 -0.796875 0.375 -2.34375l0 -0.859375zm5.98114 6.9375l0 -13.828125l2.109375 0l0 2.09375q0.796875 -1.46875 1.484375 -1.9375q0.6875 -0.46875 1.5 -0.46875q1.1875 0 2.40625 0.765625l-0.796875 2.171875q-0.859375 -0.515625 -1.71875 -0.515625q-0.765625 0 -1.390625 0.46875q-0.609375 0.453125 -0.859375 1.28125q-0.390625 1.25 -0.390625 2.734375l0 7.234375l-2.34375 0zm17.923645 -5.0625l2.296875 0.296875q-0.375 2.390625 -1.9375 3.734375q-1.546875 1.34375 -3.8125 1.34375q-2.84375 0 -4.5625 -1.84375q-1.71875 -1.859375 -1.71875 -5.328125q0 -2.234375 0.734375 -3.90625q0.75 -1.6875 2.265625 -2.53125q1.515625 -0.84375 3.296875 -0.84375q2.25 0 3.671875 1.140625q1.4375 1.140625 1.84375 3.234375l-2.28125 0.359375q-0.328125 -1.390625 -1.15625 -2.09375q-0.8125 -0.703125 -1.984375 -0.703125q-1.78125 0 -2.890625 1.265625q-1.09375 1.265625 -1.09375 4.015625q0 2.78125 1.0625 4.046875q1.0625 1.265625 2.78125 1.265625q1.390625 0 2.3125 -0.84375q0.921875 -0.859375 1.171875 -2.609375zm3.4375 -1.84375q0 -3.84375 2.125 -5.6875q1.78125 -1.546875 4.34375 -1.546875q2.859375 0 4.65625 1.875q1.8125 1.859375 1.8125 5.15625q0 2.671875 -0.796875 4.203125q-0.796875 1.53125 -2.328125 2.375q-1.53125 0.84375 -3.34375 0.84375q-2.890625 0 -4.6875 -1.859375q-1.78125 -1.859375 -1.78125 -5.359375zm2.40625 0q0 2.65625 1.15625 3.984375q1.15625 1.3125 2.90625 1.3125q1.75 0 2.90625 -1.328125q1.15625 -1.328125 1.15625 -4.046875q0 -2.5625 -1.171875 -3.890625q-1.15625 -1.328125 -2.890625 -1.328125q-1.75 0 -2.90625 1.328125q-1.15625 1.3125 -1.15625 3.96875zm22.340576 6.90625l0 -2.03125q-1.609375 2.34375 -4.375 2.34375q-1.234375 0 -2.296875 -0.46875q-1.0625 -0.46875 -1.578125 -1.171875q-0.5 -0.71875 -0.71875 -1.75q-0.140625 -0.6875 -0.140625 -2.1875l0 -8.5625l2.34375 0l0 7.671875q0 1.828125 0.140625 2.46875q0.21875 0.921875 0.9375 1.453125q0.71875 0.53125 1.765625 0.53125q1.0625 0 1.984375 -0.53125q0.921875 -0.546875 1.296875 -1.46875q0.390625 -0.9375 0.390625 -2.71875l0 -7.40625l2.34375 0l0 13.828125l-2.09375 0zm5.746765 0l0 -13.828125l2.109375 0l0 2.09375q0.796875 -1.46875 1.484375 -1.9375q0.6875 -0.46875 1.5 -0.46875q1.1875 0 2.40625 0.765625l-0.796875 2.171875q-0.859375 -0.515625 -1.71875 -0.515625q-0.765625 0 -1.390625 0.46875q-0.609375 0.453125 -0.859375 1.28125q-0.390625 1.25 -0.390625 2.734375l0 7.234375l-2.34375 0zm14.017395 -2.09375l0.328125 2.0625q-0.984375 0.21875 -1.765625 0.21875q-1.265625 0 -1.96875 -0.40625q-0.703125 -0.40625 -1.0 -1.0625q-0.28125 -0.65625 -0.28125 -2.765625l0 -7.953125l-1.71875 0l0 -1.828125l1.71875 0l0 -3.421875l2.328125 -1.40625l0 4.828125l2.359375 0l0 1.828125l-2.359375 0l0 8.078125q0 1.0 0.125 1.296875q0.125 0.28125 0.40625 0.453125q0.28125 0.171875 0.796875 0.171875q0.390625 0 1.03125 -0.09375z" fill-rule="nonzero"/><path fill="#000000" fill-opacity="0.0" d="m640.874 81.538055l0 71.055115" fill-rule="evenodd"/><path stroke="#000000" stroke-width="3.0" stroke-linejoin="round" stroke-linecap="butt" d="m640.874 81.538055l0 71.055115" fill-rule="evenodd"/><path fill="#000000" fill-opacity="0.0" d="m640.874 209.53806l0 71.055115" fill-rule="evenodd"/><path stroke="#000000" stroke-width="3.0" stroke-linejoin="round" stroke-linecap="butt" d="m640.874 209.53806l0 71.055115" fill-rule="evenodd"/><path fill="#000000" fill-opacity="0.0" d="m395.50394 360.05774l121.22836 -50.992126" fill-rule="evenodd"/><path stroke="#000000" stroke-width="3.0" stroke-linejoin="round" stroke-linecap="butt" d="m395.50394 360.05774l121.22836 -50.992126" fill-rule="evenodd"/><path fill="#000000" fill-opacity="0.0" d="m329.50656 418.37796l-180.09448 77.66928" fill-rule="evenodd"/><path stroke="#000000" stroke-width="3.0" stroke-linejoin="round" stroke-linecap="butt" d="m329.50656 418.37796l-180.09448 77.66928" fill-rule="evenodd"/><path fill="#000000" fill-opacity="0.0" d="m776.43567 490.11548l60.91339 75.52759" fill-rule="evenodd"/><path stroke="#000000" stroke-width="3.0" stroke-linejoin="round" stroke-linecap="butt" d="m776.43567 490.11548l60.91339 75.52759" fill-rule="evenodd"/><path fill="#000000" fill-opacity="0.0" d="m273.5433 524.5171l109.38583 40.440918" fill-rule="evenodd"/><path stroke="#000000" stroke-width="3.0" stroke-linejoin="round" stroke-linecap="butt" d="m273.5433 524.5171l109.38583 40.440918" fill-rule="evenodd"/><path fill="#000000" fill-opacity="0.0" d="m592.1627 336.54068l-138.92914 229.10239" fill-rule="evenodd"/><path stroke="#000000" stroke-width="3.0" stroke-linejoin="round" stroke-linecap="butt" d="m592.1627 336.54068l-138.92914 229.10239" fill-rule="evenodd"/><path fill="#000000" fill-opacity="0.0" d="m701.56433 338.45145l21.732239 94.14172" fill-rule="evenodd"/><path stroke="#000000" stroke-width="3.0" stroke-linejoin="round" stroke-linecap="butt" d="m701.56433 338.45145l21.732239 94.14172" fill-rule="evenodd"/><path fill="#000000" fill-opacity="0.0" d="m776.4409 624.47504l-69.102356 61.41736" fill-rule="evenodd"/><path stroke="#000000" stroke-width="3.0" stroke-linejoin="round" stroke-linecap="butt" d="m776.4409 624.47504l-69.102356 61.41736" fill-rule="evenodd"/><path fill="#000000" fill-opacity="0.0" d="m670.8583 486.27823l-29.984253 198.48819" fill-rule="evenodd"/><path stroke="#000000" stroke-width="3.0" stroke-linejoin="round" stroke-linecap="butt" d="m670.8583 486.27823l-29.984253 198.48819" fill-rule="evenodd"/><path fill="#000000" fill-opacity="0.0" d="m511.54855 622.55383l63.338593 63.338562" fill-rule="evenodd"/><path stroke="#000000" stroke-width="3.0" stroke-linejoin="round" stroke-linecap="butt" d="m511.54855 622.55383l63.338593 63.338562" fill-rule="evenodd"/><path fill="#000000" fill-opacity="0.0" d="m637.08136 92.026245l352.53546 0l0 50.078735l-352.53546 0z" fill-rule="evenodd"/><path fill="#000000" d="m658.83136 123.20562l0 2.140625l-11.984375 0q-0.03125 -0.796875 0.265625 -1.546875q0.453125 -1.21875 1.453125 -2.40625q1.015625 -1.1875 2.921875 -2.75q2.953125 -2.421875 3.984375 -3.828125q1.046875 -1.421875 1.046875 -2.6875q0 -1.328125 -0.953125 -2.234375q-0.9375 -0.90625 -2.453125 -0.90625q-1.609375 0 -2.578125 0.96875q-0.96875 0.953125 -0.984375 2.671875l-2.28125 -0.234375q0.234375 -2.5625 1.765625 -3.90625q1.53125 -1.34375 4.125 -1.34375q2.609375 0 4.125 1.453125q1.515625 1.4375 1.515625 3.578125q0 1.09375 -0.453125 2.140625q-0.4375 1.046875 -1.46875 2.21875q-1.03125 1.15625 -3.421875 3.1875q-2.0 1.6875 -2.578125 2.28125q-0.5625 0.59375 -0.9375 1.203125l8.890625 0zm14.086304 0l0 2.140625l-11.984375 0q-0.03125 -0.796875 0.265625 -1.546875q0.453125 -1.21875 1.453125 -2.40625q1.015625 -1.1875 2.921875 -2.75q2.953125 -2.421875 3.984375 -3.828125q1.046875 -1.421875 1.046875 -2.6875q0 -1.328125 -0.953125 -2.234375q-0.9375 -0.90625 -2.453125 -0.90625q-1.609375 0 -2.578125 0.96875q-0.96875 0.953125 -0.984375 2.671875l-2.28125 -0.234375q0.234375 -2.5625 1.765625 -3.90625q1.53125 -1.34375 4.125 -1.34375q2.609375 0 4.125 1.453125q1.515625 1.4375 1.515625 3.578125q0 1.09375 -0.453125 2.140625q-0.4375 1.046875 -1.46875 2.21875q-1.03125 1.15625 -3.421875 3.1875q-2.0 1.6875 -2.578125 2.28125q-0.5625 0.59375 -0.9375 1.203125l8.890625 0zm2.3831787 -6.796875q0 -3.21875 0.65625 -5.171875q0.671875 -1.96875 1.96875 -3.03125q1.3125 -1.0625 3.296875 -1.0625q1.453125 0 2.546875 0.59375q1.109375 0.578125 1.828125 1.6875q0.71875 1.109375 1.125 2.703125q0.40625 1.578125 0.40625 4.28125q0 3.1875 -0.65625 5.15625q-0.65625 1.953125 -1.96875 3.03125q-1.296875 1.0625 -3.28125 1.0625q-2.625 0 -4.125 -1.890625q-1.796875 -2.25 -1.796875 -7.359375zm2.296875 0q0 4.453125 1.03125 5.9375q1.046875 1.484375 2.59375 1.484375q1.53125 0 2.578125 -1.484375q1.046875 -1.484375 1.046875 -5.9375q0 -4.484375 -1.046875 -5.953125q-1.046875 -1.46875 -2.609375 -1.46875q-1.53125 0 -2.453125 1.296875q-1.140625 1.65625 -1.140625 6.125z" fill-rule="nonzero"/><path fill="#000000" fill-opacity="0.0" d="m637.08136 220.02625l352.53546 0l0 50.078735l-352.53546 0z" fill-rule="evenodd"/><path fill="#000000" d="m647.14386 248.565l2.234375 -0.296875q0.375 1.890625 1.296875 2.734375q0.921875 0.828125 2.25 0.828125q1.5625 0 2.640625 -1.09375q1.09375 -1.09375 1.09375 -2.703125q0 -1.53125 -1.0 -2.515625q-1.0 -1.0 -2.546875 -1.0q-0.640625 0 -1.578125 0.25l0.25 -1.953125q0.21875 0.015625 0.359375 0.015625q1.421875 0 2.546875 -0.734375q1.140625 -0.75 1.140625 -2.296875q0 -1.21875 -0.828125 -2.015625q-0.828125 -0.8125 -2.125 -0.8125q-1.3125 0 -2.171875 0.828125q-0.859375 0.8125 -1.109375 2.4375l-2.234375 -0.390625q0.40625 -2.25 1.859375 -3.46875q1.453125 -1.234375 3.59375 -1.234375q1.484375 0 2.734375 0.640625q1.25 0.625 1.90625 1.734375q0.671875 1.09375 0.671875 2.328125q0 1.1875 -0.640625 2.15625q-0.625 0.953125 -1.859375 1.53125q1.609375 0.359375 2.5 1.53125q0.890625 1.171875 0.890625 2.921875q0 2.375 -1.734375 4.03125q-1.734375 1.65625 -4.375 1.65625q-2.390625 0 -3.96875 -1.421875q-1.578125 -1.421875 -1.796875 -3.6875zm22.461304 4.78125l-2.234375 0l0 -14.1875q-0.796875 0.765625 -2.109375 1.53125q-1.296875 0.765625 -2.328125 1.15625l0 -2.15625q1.859375 -0.875 3.25 -2.125q1.40625 -1.25 1.984375 -2.421875l1.4375 0l0 18.203125zm5.6956787 -8.9375q0 -3.21875 0.65625 -5.171875q0.671875 -1.96875 1.96875 -3.03125q1.3125 -1.0625 3.296875 -1.0625q1.453125 0 2.546875 0.59375q1.109375 0.578125 1.828125 1.6875q0.71875 1.109375 1.125 2.703125q0.40625 1.578125 0.40625 4.28125q0 3.1875 -0.65625 5.15625q-0.65625 1.953125 -1.96875 3.03125q-1.296875 1.0625 -3.28125 1.0625q-2.625 0 -4.125 -1.890625q-1.796875 -2.25 -1.796875 -7.359375zm2.296875 0q0 4.453125 1.03125 5.9375q1.046875 1.484375 2.59375 1.484375q1.53125 0 2.578125 -1.484375q1.046875 -1.484375 1.046875 -5.9375q0 -4.484375 -1.046875 -5.953125q-1.046875 -1.46875 -2.609375 -1.46875q-1.53125 0 -2.453125 1.296875q-1.140625 1.65625 -1.140625 6.125z" fill-rule="nonzero"/><path fill="#000000" fill-opacity="0.0" d="m709.08136 356.02625l352.53546 0l0 50.078735l-352.53546 0z" fill-rule="evenodd"/><path fill="#000000" d="m726.26886 389.34625l0 -4.34375l-7.859375 0l0 -2.03125l8.265625 -11.75l1.8125 0l0 11.75l2.453125 0l0 2.03125l-2.453125 0l0 4.34375l-2.21875 0zm0 -6.375l0 -8.1875l-5.671875 8.1875l5.671875 0zm6.9613037 1.59375l2.234375 -0.296875q0.375 1.890625 1.296875 2.734375q0.921875 0.828125 2.25 0.828125q1.5625 0 2.640625 -1.09375q1.09375 -1.09375 1.09375 -2.703125q0 -1.53125 -1.0 -2.515625q-1.0 -1.0 -2.546875 -1.0q-0.640625 0 -1.578125 0.25l0.25 -1.953125q0.21875 0.015625 0.359375 0.015625q1.421875 0 2.546875 -0.734375q1.140625 -0.75 1.140625 -2.296875q0 -1.21875 -0.828125 -2.015625q-0.828125 -0.8125 -2.125 -0.8125q-1.3125 0 -2.171875 0.828125q-0.859375 0.8125 -1.109375 2.4375l-2.234375 -0.390625q0.40625 -2.25 1.859375 -3.46875q1.453125 -1.234375 3.59375 -1.234375q1.484375 0 2.734375 0.640625q1.25 0.625 1.90625 1.734375q0.671875 1.09375 0.671875 2.328125q0 1.1875 -0.640625 2.15625q-0.625 0.953125 -1.859375 1.53125q1.609375 0.359375 2.5 1.53125q0.890625 1.171875 0.890625 2.921875q0 2.375 -1.734375 4.03125q-1.734375 1.65625 -4.375 1.65625q-2.390625 0 -3.96875 -1.421875q-1.578125 -1.421875 -1.796875 -3.6875zm14.070679 -4.15625q0 -3.21875 0.65625 -5.171875q0.671875 -1.96875 1.96875 -3.03125q1.3125 -1.0625 3.296875 -1.0625q1.453125 0 2.546875 0.59375q1.109375 0.578125 1.828125 1.6875q0.71875 1.109375 1.125 2.703125q0.40625 1.578125 0.40625 4.28125q0 3.1875 -0.65625 5.15625q-0.65625 1.953125 -1.96875 3.03125q-1.296875 1.0625 -3.28125 1.0625q-2.625 0 -4.125 -1.890625q-1.796875 -2.25 -1.796875 -7.359375zm2.296875 0q0 4.453125 1.03125 5.9375q1.046875 1.484375 2.59375 1.484375q1.53125 0 2.578125 -1.484375q1.046875 -1.484375 1.046875 -5.9375q0 -4.484375 -1.046875 -5.953125q-1.046875 -1.46875 -2.609375 -1.46875q-1.53125 0 -2.453125 1.296875q-1.140625 1.65625 -1.140625 6.125z" fill-rule="nonzero"/><path fill="#000000" fill-opacity="0.0" d="m813.08136 500.02625l352.53546 0l0 50.078735l-352.53546 0z" fill-rule="evenodd"/><path fill="#000000" d="m831.51886 533.34625l-2.234375 0l0 -14.1875q-0.796875 0.765625 -2.109375 1.53125q-1.296875 0.765625 -2.328125 1.15625l0 -2.15625q1.859375 -0.875 3.25 -2.125q1.40625 -1.25 1.984375 -2.421875l1.4375 0l0 18.203125zm6.0394287 -4.1875l2.140625 -0.203125q0.265625 1.515625 1.03125 2.203125q0.765625 0.671875 1.96875 0.671875q1.03125 0 1.796875 -0.46875q0.78125 -0.484375 1.265625 -1.265625q0.5 -0.78125 0.828125 -2.109375q0.34375 -1.34375 0.34375 -2.734375q0 -0.140625 -0.015625 -0.4375q-0.671875 1.0625 -1.828125 1.734375q-1.15625 0.65625 -2.5 0.65625q-2.25 0 -3.8125 -1.625q-1.5625 -1.640625 -1.5625 -4.3125q0 -2.765625 1.625 -4.4375q1.625 -1.6875 4.078125 -1.6875q1.765625 0 3.234375 0.953125q1.46875 0.953125 2.21875 2.71875q0.765625 1.75 0.765625 5.09375q0 3.46875 -0.75 5.53125q-0.75 2.0625 -2.25 3.140625q-1.484375 1.078125 -3.484375 1.078125q-2.125 0 -3.484375 -1.171875q-1.34375 -1.1875 -1.609375 -3.328125zm9.109375 -8.0q0 -1.921875 -1.03125 -3.046875q-1.015625 -1.125 -2.4375 -1.125q-1.484375 0 -2.59375 1.21875q-1.09375 1.203125 -1.09375 3.125q0 1.734375 1.03125 2.828125q1.046875 1.078125 2.59375 1.078125q1.546875 0 2.53125 -1.078125q1.0 -1.09375 1.0 -3.0zm4.6331787 3.25q0 -3.21875 0.65625 -5.171875q0.671875 -1.96875 1.96875 -3.03125q1.3125 -1.0625 3.296875 -1.0625q1.453125 0 2.546875 0.59375q1.109375 0.578125 1.828125 1.6875q0.71875 1.109375 1.125 2.703125q0.40625 1.578125 0.40625 4.28125q0 3.1875 -0.65625 5.15625q-0.65625 1.953125 -1.96875 3.03125q-1.296875 1.0625 -3.28125 1.0625q-2.625 0 -4.125 -1.890625q-1.796875 -2.25 -1.796875 -7.359375zm2.296875 0q0 4.453125 1.03125 5.9375q1.046875 1.484375 2.59375 1.484375q1.53125 0 2.578125 -1.484375q1.046875 -1.484375 1.046875 -5.9375q0 -4.484375 -1.046875 -5.953125q-1.046875 -1.46875 -2.609375 -1.46875q-1.53125 0 -2.453125 1.296875q-1.140625 1.65625 -1.140625 6.125z" fill-rule="nonzero"/><path fill="#000000" fill-opacity="0.0" d="m741.08136 636.02625l352.53546 0l0 50.078735l-352.53546 0z" fill-rule="evenodd"/><path fill="#000000" d="m762.69073 655.65875l-2.21875 0.171875q-0.296875 -1.3125 -0.84375 -1.90625q-0.90625 -0.953125 -2.21875 -0.953125q-1.0625 0 -1.875 0.59375q-1.046875 0.765625 -1.65625 2.234375q-0.609375 1.46875 -0.625 4.203125q0.796875 -1.234375 1.953125 -1.828125q1.171875 -0.59375 2.4375 -0.59375q2.234375 0 3.796875 1.640625q1.5625 1.640625 1.5625 4.234375q0 1.703125 -0.734375 3.171875q-0.734375 1.46875 -2.03125 2.25q-1.28125 0.78125 -2.90625 0.78125q-2.78125 0 -4.546875 -2.046875q-1.75 -2.046875 -1.75 -6.75q0 -5.25 1.9375 -7.640625q1.703125 -2.078125 4.5625 -2.078125q2.140625 0 3.5 1.203125q1.375 1.1875 1.65625 3.3125zm-9.09375 7.8125q0 1.15625 0.484375 2.203125q0.484375 1.046875 1.359375 1.609375q0.890625 0.546875 1.84375 0.546875q1.421875 0 2.421875 -1.140625q1.015625 -1.140625 1.015625 -3.09375q0 -1.875 -1.0 -2.953125q-1.0 -1.09375 -2.515625 -1.09375q-1.515625 0 -2.5625 1.09375q-1.046875 1.078125 -1.046875 2.828125zm11.617554 -3.0625q0 -3.21875 0.65625 -5.171875q0.671875 -1.96875 1.96875 -3.03125q1.3125 -1.0625 3.296875 -1.0625q1.453125 0 2.546875 0.59375q1.109375 0.578125 1.828125 1.6875q0.71875 1.109375 1.125 2.703125q0.40625 1.578125 0.40625 4.28125q0 3.1875 -0.65625 5.15625q-0.65625 1.953125 -1.96875 3.03125q-1.296875 1.0625 -3.28125 1.0625q-2.625 0 -4.125 -1.890625q-1.796875 -2.25 -1.796875 -7.359375zm2.296875 0q0 4.453125 1.03125 5.9375q1.046875 1.484375 2.59375 1.484375q1.53125 0 2.578125 -1.484375q1.046875 -1.484375 1.046875 -5.9375q0 -4.484375 -1.046875 -5.953125q-1.046875 -1.46875 -2.609375 -1.46875q-1.53125 0 -2.453125 1.296875q-1.140625 1.65625 -1.140625 6.125z" fill-rule="nonzero"/><path fill="#000000" fill-opacity="0.0" d="m477.08136 636.02625l352.53546 0l0 50.078735l-352.53546 0z" fill-rule="evenodd"/><path fill="#000000" d="m487.14386 664.565l2.234375 -0.296875q0.375 1.890625 1.296875 2.734375q0.921875 0.828125 2.25 0.828125q1.5625 0 2.640625 -1.09375q1.09375 -1.09375 1.09375 -2.703125q0 -1.53125 -1.0 -2.515625q-1.0 -1.0 -2.546875 -1.0q-0.640625 0 -1.578125 0.25l0.25 -1.953125q0.21875 0.015625 0.359375 0.015625q1.421875 0 2.546875 -0.734375q1.140625 -0.75 1.140625 -2.296875q0 -1.21875 -0.828125 -2.015625q-0.828125 -0.8125 -2.125 -0.8125q-1.3125 0 -2.171875 0.828125q-0.859375 0.8125 -1.109375 2.4375l-2.234375 -0.390625q0.40625 -2.25 1.859375 -3.46875q1.453125 -1.234375 3.59375 -1.234375q1.484375 0 2.734375 0.640625q1.25 0.625 1.90625 1.734375q0.671875 1.09375 0.671875 2.328125q0 1.1875 -0.640625 2.15625q-0.625 0.953125 -1.859375 1.53125q1.609375 0.359375 2.5 1.53125q0.890625 1.171875 0.890625 2.921875q0 2.375 -1.734375 4.03125q-1.734375 1.65625 -4.375 1.65625q-2.390625 0 -3.96875 -1.421875q-1.578125 -1.421875 -1.796875 -3.6875zm14.070679 -4.15625q0 -3.21875 0.65625 -5.171875q0.671875 -1.96875 1.96875 -3.03125q1.3125 -1.0625 3.296875 -1.0625q1.453125 0 2.546875 0.59375q1.109375 0.578125 1.828125 1.6875q0.71875 1.109375 1.125 2.703125q0.40625 1.578125 0.40625 4.28125q0 3.1875 -0.65625 5.15625q-0.65625 1.953125 -1.96875 3.03125q-1.296875 1.0625 -3.28125 1.0625q-2.625 0 -4.125 -1.890625q-1.796875 -2.25 -1.796875 -7.359375zm2.296875 0q0 4.453125 1.03125 5.9375q1.046875 1.484375 2.59375 1.484375q1.53125 0 2.578125 -1.484375q1.046875 -1.484375 1.046875 -5.9375q0 -4.484375 -1.046875 -5.953125q-1.046875 -1.46875 -2.609375 -1.46875q-1.53125 0 -2.453125 1.296875q-1.140625 1.65625 -1.140625 6.125zm11.789429 0q0 -3.21875 0.65625 -5.171875q0.671875 -1.96875 1.96875 -3.03125q1.3125 -1.0625 3.296875 -1.0625q1.453125 0 2.546875 0.59375q1.109375 0.578125 1.828125 1.6875q0.71875 1.109375 1.125 2.703125q0.40625 1.578125 0.40625 4.28125q0 3.1875 -0.65625 5.15625q-0.65625 1.953125 -1.96875 3.03125q-1.296875 1.0625 -3.28125 1.0625q-2.625 0 -4.125 -1.890625q-1.796875 -2.25 -1.796875 -7.359375zm2.296875 0q0 4.453125 1.03125 5.9375q1.046875 1.484375 2.59375 1.484375q1.53125 0 2.578125 -1.484375q1.046875 -1.484375 1.046875 -5.9375q0 -4.484375 -1.046875 -5.953125q-1.046875 -1.46875 -2.609375 -1.46875q-1.53125 0 -2.453125 1.296875q-1.140625 1.65625 -1.140625 6.125z" fill-rule="nonzero"/><path fill="#000000" fill-opacity="0.0" d="m597.08136 556.02625l352.53546 0l0 50.078735l-352.53546 0z" fill-rule="evenodd"/><path fill="#000000" d="m618.83136 587.2056l0 2.140625l-11.984375 0q-0.03125 -0.796875 0.265625 -1.546875q0.453125 -1.21875 1.453125 -2.40625q1.015625 -1.1875 2.921875 -2.75q2.953125 -2.421875 3.984375 -3.828125q1.046875 -1.421875 1.046875 -2.6875q0 -1.328125 -0.953125 -2.234375q-0.9375 -0.90625 -2.453125 -0.90625q-1.609375 0 -2.578125 0.96875q-0.96875 0.953125 -0.984375 2.671875l-2.28125 -0.234375q0.234375 -2.5625 1.765625 -3.90625q1.53125 -1.34375 4.125 -1.34375q2.609375 0 4.125 1.453125q1.515625 1.4375 1.515625 3.578125q0 1.09375 -0.453125 2.140625q-0.4375 1.046875 -1.46875 2.21875q-1.03125 1.15625 -3.421875 3.1875q-2.0 1.6875 -2.578125 2.28125q-0.5625 0.59375 -0.9375 1.203125l8.890625 0zm13.945679 -11.546875l-2.21875 0.171875q-0.296875 -1.3125 -0.84375 -1.90625q-0.90625 -0.953125 -2.21875 -0.953125q-1.0625 0 -1.875 0.59375q-1.046875 0.765625 -1.65625 2.234375q-0.609375 1.46875 -0.625 4.203125q0.796875 -1.234375 1.953125 -1.828125q1.171875 -0.59375 2.4375 -0.59375q2.234375 0 3.796875 1.640625q1.5625 1.640625 1.5625 4.234375q0 1.703125 -0.734375 3.171875q-0.734375 1.46875 -2.03125 2.25q-1.28125 0.78125 -2.90625 0.78125q-2.78125 0 -4.546875 -2.046875q-1.75 -2.046875 -1.75 -6.75q0 -5.25 1.9375 -7.640625q1.703125 -2.078125 4.5625 -2.078125q2.140625 0 3.5 1.203125q1.375 1.1875 1.65625 3.3125zm-9.09375 7.8125q0 1.15625 0.484375 2.203125q0.484375 1.046875 1.359375 1.609375q0.890625 0.546875 1.84375 0.546875q1.421875 0 2.421875 -1.140625q1.015625 -1.140625 1.015625 -3.09375q0 -1.875 -1.0 -2.953125q-1.0 -1.09375 -2.515625 -1.09375q-1.515625 0 -2.5625 1.09375q-1.046875 1.078125 -1.046875 2.828125zm11.617554 -3.0625q0 -3.21875 0.65625 -5.171875q0.671875 -1.96875 1.96875 -3.03125q1.3125 -1.0625 3.296875 -1.0625q1.453125 0 2.546875 0.59375q1.109375 0.578125 1.828125 1.6875q0.71875 1.109375 1.125 2.703125q0.40625 1.578125 0.40625 4.28125q0 3.1875 -0.65625 5.15625q-0.65625 1.953125 -1.96875 3.03125q-1.296875 1.0625 -3.28125 1.0625q-2.625 0 -4.125 -1.890625q-1.796875 -2.25 -1.796875 -7.359375zm2.296875 0q0 4.453125 1.03125 5.9375q1.046875 1.484375 2.59375 1.484375q1.53125 0 2.578125 -1.484375q1.046875 -1.484375 1.046875 -5.9375q0 -4.484375 -1.046875 -5.953125q-1.046875 -1.46875 -2.609375 -1.46875q-1.53125 0 -2.453125 1.296875q-1.140625 1.65625 -1.140625 6.125z" fill-rule="nonzero"/><path fill="#000000" fill-opacity="0.0" d="m301.08136 500.02625l352.53546 0l0 50.078735l-352.53546 0z" fill-rule="evenodd"/><path fill="#000000" d="m318.26886 533.34625l0 -4.34375l-7.859375 0l0 -2.03125l8.265625 -11.75l1.8125 0l0 11.75l2.453125 0l0 2.03125l-2.453125 0l0 4.34375l-2.21875 0zm0 -6.375l0 -8.1875l-5.671875 8.1875l5.671875 0zm6.9456787 -2.5625q0 -3.21875 0.65625 -5.171875q0.671875 -1.96875 1.96875 -3.03125q1.3125 -1.0625 3.296875 -1.0625q1.453125 0 2.546875 0.59375q1.109375 0.578125 1.828125 1.6875q0.71875 1.109375 1.125 2.703125q0.40625 1.578125 0.40625 4.28125q0 3.1875 -0.65625 5.15625q-0.65625 1.953125 -1.96875 3.03125q-1.296875 1.0625 -3.28125 1.0625q-2.625 0 -4.125 -1.890625q-1.796875 -2.25 -1.796875 -7.359375zm2.296875 0q0 4.453125 1.03125 5.9375q1.046875 1.484375 2.59375 1.484375q1.53125 0 2.578125 -1.484375q1.046875 -1.484375 1.046875 -5.9375q0 -4.484375 -1.046875 -5.953125q-1.046875 -1.46875 -2.609375 -1.46875q-1.53125 0 -2.453125 1.296875q-1.140625 1.65625 -1.140625 6.125zm11.789429 0q0 -3.21875 0.65625 -5.171875q0.671875 -1.96875 1.96875 -3.03125q1.3125 -1.0625 3.296875 -1.0625q1.453125 0 2.546875 0.59375q1.109375 0.578125 1.828125 1.6875q0.71875 1.109375 1.125 2.703125q0.40625 1.578125 0.40625 4.28125q0 3.1875 -0.65625 5.15625q-0.65625 1.953125 -1.96875 3.03125q-1.296875 1.0625 -3.28125 1.0625q-2.625 0 -4.125 -1.890625q-1.796875 -2.25 -1.796875 -7.359375zm2.296875 0q0 4.453125 1.03125 5.9375q1.046875 1.484375 2.59375 1.484375q1.53125 0 2.578125 -1.484375q1.046875 -1.484375 1.046875 -5.9375q0 -4.484375 -1.046875 -5.953125q-1.046875 -1.46875 -2.609375 -1.46875q-1.53125 0 -2.453125 1.296875q-1.140625 1.65625 -1.140625 6.125z" fill-rule="nonzero"/><path fill="#000000" fill-opacity="0.0" d="m165.08136 428.02625l352.53546 0l0 50.078735l-352.53546 0z" fill-rule="evenodd"/><path fill="#000000" d="m183.51886 461.34625l-2.234375 0l0 -14.1875q-0.796875 0.765625 -2.109375 1.53125q-1.296875 0.765625 -2.328125 1.15625l0 -2.15625q1.859375 -0.875 3.25 -2.125q1.40625 -1.25 1.984375 -2.421875l1.4375 0l0 18.203125zm12.836304 0l0 -4.34375l-7.859375 0l0 -2.03125l8.265625 -11.75l1.8125 0l0 11.75l2.453125 0l0 2.03125l-2.453125 0l0 4.34375l-2.21875 0zm0 -6.375l0 -8.1875l-5.671875 8.1875l5.671875 0zm6.9456787 -2.5625q0 -3.21875 0.65625 -5.171875q0.671875 -1.96875 1.96875 -3.03125q1.3125 -1.0625 3.296875 -1.0625q1.453125 0 2.546875 0.59375q1.109375 0.578125 1.828125 1.6875q0.71875 1.109375 1.125 2.703125q0.40625 1.578125 0.40625 4.28125q0 3.1875 -0.65625 5.15625q-0.65625 1.953125 -1.96875 3.03125q-1.296875 1.0625 -3.28125 1.0625q-2.625 0 -4.125 -1.890625q-1.796875 -2.25 -1.796875 -7.359375zm2.296875 0q0 4.453125 1.03125 5.9375q1.046875 1.484375 2.59375 1.484375q1.53125 0 2.578125 -1.484375q1.046875 -1.484375 1.046875 -5.9375q0 -4.484375 -1.046875 -5.953125q-1.046875 -1.46875 -2.609375 -1.46875q-1.53125 0 -2.453125 1.296875q-1.140625 1.65625 -1.140625 6.125z" fill-rule="nonzero"/><path fill="#000000" fill-opacity="0.0" d="m405.08136 292.02625l352.53546 0l0 50.078735l-352.53546 0z" fill-rule="evenodd"/><path fill="#000000" d="m426.69073 311.65875l-2.21875 0.171875q-0.296875 -1.3125 -0.84375 -1.90625q-0.90625 -0.953125 -2.21875 -0.953125q-1.0625 0 -1.875 0.59375q-1.046875 0.765625 -1.65625 2.234375q-0.609375 1.46875 -0.625 4.203125q0.796875 -1.234375 1.953125 -1.828125q1.171875 -0.59375 2.4375 -0.59375q2.234375 0 3.796875 1.640625q1.5625 1.640625 1.5625 4.234375q0 1.703125 -0.734375 3.171875q-0.734375 1.46875 -2.03125 2.25q-1.28125 0.78125 -2.90625 0.78125q-2.78125 0 -4.546875 -2.046875q-1.75 -2.046875 -1.75 -6.75q0 -5.25 1.9375 -7.640625q1.703125 -2.078125 4.5625 -2.078125q2.140625 0 3.5 1.203125q1.375 1.1875 1.65625 3.3125zm-9.09375 7.8125q0 1.15625 0.484375 2.203125q0.484375 1.046875 1.359375 1.609375q0.890625 0.546875 1.84375 0.546875q1.421875 0 2.421875 -1.140625q1.015625 -1.140625 1.015625 -3.09375q0 -1.875 -1.0 -2.953125q-1.0 -1.09375 -2.515625 -1.09375q-1.515625 0 -2.5625 1.09375q-1.046875 1.078125 -1.046875 2.828125zm11.617554 -3.0625q0 -3.21875 0.65625 -5.171875q0.671875 -1.96875 1.96875 -3.03125q1.3125 -1.0625 3.296875 -1.0625q1.453125 0 2.546875 0.59375q1.109375 0.578125 1.828125 1.6875q0.71875 1.109375 1.125 2.703125q0.40625 1.578125 0.40625 4.28125q0 3.1875 -0.65625 5.15625q-0.65625 1.953125 -1.96875 3.03125q-1.296875 1.0625 -3.28125 1.0625q-2.625 0 -4.125 -1.890625q-1.796875 -2.25 -1.796875 -7.359375zm2.296875 0q0 4.453125 1.03125 5.9375q1.046875 1.484375 2.59375 1.484375q1.53125 0 2.578125 -1.484375q1.046875 -1.484375 1.046875 -5.9375q0 -4.484375 -1.046875 -5.953125q-1.046875 -1.46875 -2.609375 -1.46875q-1.53125 0 -2.453125 1.296875q-1.140625 1.65625 -1.140625 6.125zm11.789429 0q0 -3.21875 0.65625 -5.171875q0.671875 -1.96875 1.96875 -3.03125q1.3125 -1.0625 3.296875 -1.0625q1.453125 0 2.546875 0.59375q1.109375 0.578125 1.828125 1.6875q0.71875 1.109375 1.125 2.703125q0.40625 1.578125 0.40625 4.28125q0 3.1875 -0.65625 5.15625q-0.65625 1.953125 -1.96875 3.03125q-1.296875 1.0625 -3.28125 1.0625q-2.625 0 -4.125 -1.890625q-1.796875 -2.25 -1.796875 -7.359375zm2.296875 0q0 4.453125 1.03125 5.9375q1.046875 1.484375 2.59375 1.484375q1.53125 0 2.578125 -1.484375q1.046875 -1.484375 1.046875 -5.9375q0 -4.484375 -1.046875 -5.953125q-1.046875 -1.46875 -2.609375 -1.46875q-1.53125 0 -2.453125 1.296875q-1.140625 1.65625 -1.140625 6.125z" fill-rule="nonzero"/><path fill="#000000" fill-opacity="0.0" d="m453.08136 412.02625l352.53546 0l0 50.078735l-352.53546 0z" fill-rule="evenodd"/><path fill="#000000" d="m471.51886 445.34625l-2.234375 0l0 -14.1875q-0.796875 0.765625 -2.109375 1.53125q-1.296875 0.765625 -2.328125 1.15625l0 -2.15625q1.859375 -0.875 3.25 -2.125q1.40625 -1.25 1.984375 -2.421875l1.4375 0l0 18.203125zm5.6956787 -8.9375q0 -3.21875 0.65625 -5.171875q0.671875 -1.96875 1.96875 -3.03125q1.3125 -1.0625 3.296875 -1.0625q1.453125 0 2.546875 0.59375q1.109375 0.578125 1.828125 1.6875q0.71875 1.109375 1.125 2.703125q0.40625 1.578125 0.40625 4.28125q0 3.1875 -0.65625 5.15625q-0.65625 1.953125 -1.96875 3.03125q-1.296875 1.0625 -3.28125 1.0625q-2.625 0 -4.125 -1.890625q-1.796875 -2.25 -1.796875 -7.359375zm2.296875 0q0 4.453125 1.03125 5.9375q1.046875 1.484375 2.59375 1.484375q1.53125 0 2.578125 -1.484375q1.046875 -1.484375 1.046875 -5.9375q0 -4.484375 -1.046875 -5.953125q-1.046875 -1.46875 -2.609375 -1.46875q-1.53125 0 -2.453125 1.296875q-1.140625 1.65625 -1.140625 6.125zm11.789429 0q0 -3.21875 0.65625 -5.171875q0.671875 -1.96875 1.96875 -3.03125q1.3125 -1.0625 3.296875 -1.0625q1.453125 0 2.546875 0.59375q1.109375 0.578125 1.828125 1.6875q0.71875 1.109375 1.125 2.703125q0.40625 1.578125 0.40625 4.28125q0 3.1875 -0.65625 5.15625q-0.65625 1.953125 -1.96875 3.03125q-1.296875 1.0625 -3.28125 1.0625q-2.625 0 -4.125 -1.890625q-1.796875 -2.25 -1.796875 -7.359375zm2.296875 0q0 4.453125 1.03125 5.9375q1.046875 1.484375 2.59375 1.484375q1.53125 0 2.578125 -1.484375q1.046875 -1.484375 1.046875 -5.9375q0 -4.484375 -1.046875 -5.953125q-1.046875 -1.46875 -2.609375 -1.46875q-1.53125 0 -2.453125 1.296875q-1.140625 1.65625 -1.140625 6.125zm11.789429 0q0 -3.21875 0.65625 -5.171875q0.671875 -1.96875 1.96875 -3.03125q1.3125 -1.0625 3.296875 -1.0625q1.453125 0 2.546875 0.59375q1.109375 0.578125 1.828125 1.6875q0.71875 1.109375 1.125 2.703125q0.40625 1.578125 0.40625 4.28125q0 3.1875 -0.65625 5.15625q-0.65625 1.953125 -1.96875 3.03125q-1.296875 1.0625 -3.28125 1.0625q-2.625 0 -4.125 -1.890625q-1.796875 -2.25 -1.796875 -7.359375zm2.296875 0q0 4.453125 1.03125 5.9375q1.046875 1.484375 2.59375 1.484375q1.53125 0 2.578125 -1.484375q1.046875 -1.484375 1.046875 -5.9375q0 -4.484375 -1.046875 -5.953125q-1.046875 -1.46875 -2.609375 -1.46875q-1.53125 0 -2.453125 1.296875q-1.140625 1.65625 -1.140625 6.125z" fill-rule="nonzero"/></g></svg>