<svg version="1.1" viewBox="0.0 0.0 446.76115485564304 496.33858267716533" fill="none" stroke="none" stroke-linecap="square" stroke-miterlimit="10" xmlns:xlink="http://www.w3.org/1999/xlink" xmlns="http://www.w3.org/2000/svg"><clipPath id="p.0"><path d="m0 0l446.76117 0l0 496.3386l-446.76117 0l0 -496.3386z" clip-rule="nonzero"/></clipPath><g clip-path="url(#p.0)"><path fill="#ffffff" d="m0 0l446.76117 0l0 496.3386l-446.76117 0z" fill-rule="evenodd"/><path fill="#cfe2f3" d="m14.761155 53.745407l0 0c0 -20.534557 16.646545 -37.181103 37.181103 -37.181103l0 0c9.861042 0 19.318203 3.917284 26.291012 10.890093c6.972809 6.9728107 10.890091 16.429968 10.890091 26.29101l0 0c0 20.534554 -16.646545 37.1811 -37.181103 37.1811l0 0c-20.534555 0 -37.181103 -16.646545 -37.181103 -37.1811z" fill-rule="evenodd"/><path stroke="#000000" stroke-width="1.0" stroke-linejoin="round" stroke-linecap="butt" d="m14.761155 53.745407l0 0c0 -20.534557 16.646545 -37.181103 37.181103 -37.181103l0 0c9.861042 0 19.318203 3.917284 26.291012 10.890093c6.972809 6.9728107 10.890091 16.429968 10.890091 26.29101l0 0c0 20.534554 -16.646545 37.1811 -37.181103 37.1811l0 0c-20.534555 0 -37.181103 -16.646545 -37.181103 -37.1811z" fill-rule="evenodd"/><path fill="#000000" d="m46.69598 57.11228q0 -2.296875 0.6875 -4.671875q0.6875 -2.375 1.515625 -3.796875q0.84375 -1.421875 1.75 -2.21875q0.90625 -0.8125 1.765625 -1.1875q0.875 -0.375 1.953125 -0.375q2.0625 0 3.453125 1.546875q1.40625 1.546875 1.40625 4.46875q0 3.0 -0.96875 5.9375q-1.140625 3.484375 -3.171875 5.234375q-1.5625 1.328125 -3.546875 1.328125q-2.046875 0 -3.453125 -1.59375q-1.390625 -1.609375 -1.390625 -4.671875zm2.15625 0.578125q0 1.671875 0.5625 2.609375q0.75 1.296875 2.234375 1.296875q1.296875 0 2.359375 -1.171875q1.53125 -1.65625 2.296875 -4.859375q0.78125 -3.203125 0.78125 -5.21875q0 -1.96875 -0.75 -2.828125q-0.734375 -0.859375 -1.96875 -0.859375q-0.890625 0 -1.671875 0.453125q-0.765625 0.453125 -1.46875 1.5625q-1.0 1.578125 -1.734375 4.703125q-0.640625 2.671875 -0.640625 4.3125z" fill-rule="nonzero"/><path fill="#cfe2f3" d="m355.26773 53.745407l0 0c0 -20.534557 16.646545 -37.181103 37.18109 -37.181103l0 0c9.861053 0 19.318207 3.917284 26.291016 10.890093c6.972809 6.9728107 10.890076 16.429968 10.890076 26.29101l0 0c0 20.534554 -16.646545 37.1811 -37.18109 37.1811l0 0c-20.534546 0 -37.18109 -16.646545 -37.18109 -37.1811z" fill-rule="evenodd"/><path stroke="#000000" stroke-width="1.0" stroke-linejoin="round" stroke-linecap="butt" d="m355.26773 53.745407l0 0c0 -20.534557 16.646545 -37.181103 37.18109 -37.181103l0 0c9.861053 0 19.318207 3.917284 26.291016 10.890093c6.972809 6.9728107 10.890076 16.429968 10.890076 26.29101l0 0c0 20.534554 -16.646545 37.1811 -37.18109 37.1811l0 0c-20.534546 0 -37.18109 -16.646545 -37.18109 -37.1811z" fill-rule="evenodd"/><path fill="#000000" d="m394.21408 60.665405l-1.640625 0l0 -10.453125q-0.59375 0.5625 -1.5625 1.140625q-0.953125 0.5625 -1.71875 0.84375l0 -1.59375q1.375 -0.640625 2.40625 -1.5625q1.03125 -0.921875 1.453125 -1.78125l1.0625 0l0 13.40625z" fill-rule="nonzero"/><path fill="#cfe2f3" d="m14.761155 296.0l0 0c0 -20.534546 16.646545 -37.18109 37.181103 -37.18109l0 0c9.861042 0 19.318203 3.9172668 26.291012 10.890076c6.972809 6.972809 10.890091 16.429962 10.890091 26.291016l0 0c0 20.534546 -16.646545 37.18109 -37.181103 37.18109l0 0c-20.534555 0 -37.181103 -16.646545 -37.181103 -37.18109z" fill-rule="evenodd"/><path stroke="#000000" stroke-width="1.0" stroke-linejoin="round" stroke-linecap="butt" d="m14.761155 296.0l0 0c0 -20.534546 16.646545 -37.18109 37.181103 -37.18109l0 0c9.861042 0 19.318203 3.9172668 26.291012 10.890076c6.972809 6.972809 10.890091 16.429962 10.890091 26.291016l0 0c0 20.534546 -16.646545 37.18109 -37.181103 37.18109l0 0c-20.534555 0 -37.181103 -16.646545 -37.181103 -37.18109z" fill-rule="evenodd"/><path fill="#000000" d="m46.38348 305.32q0.34375 -1.625 0.953125 -2.71875q0.625 -1.09375 1.625 -2.078125q1.015625 -0.984375 3.921875 -3.296875q1.75 -1.390625 2.390625 -2.0625q0.921875 -0.96875 1.34375 -1.890625q0.296875 -0.625 0.296875 -1.375q0 -1.25 -0.890625 -2.109375q-0.890625 -0.875 -2.171875 -0.875q-1.265625 0 -2.21875 0.890625q-0.953125 0.875 -1.359375 2.828125l-2.203125 -0.328125q0.328125 -2.40625 1.875 -3.796875q1.5625 -1.390625 3.875 -1.390625q1.546875 0 2.796875 0.640625q1.25 0.640625 1.875 1.8125q0.640625 1.15625 0.640625 2.390625q0 1.8125 -1.28125 3.484375q-0.796875 1.03125 -4.65625 4.09375q-1.65625 1.296875 -2.46875 2.140625q-0.8125 0.84375 -1.21875 1.59375l8.109375 0l-0.421875 2.046875l-10.8125 0z" fill-rule="nonzero"/><path fill="#cfe2f3" d="m355.26773 296.0l0 0c0 -20.534546 16.646545 -37.18109 37.18109 -37.18109l0 0c9.861053 0 19.318207 3.9172668 26.291016 10.890076c6.972809 6.972809 10.890076 16.429962 10.890076 26.291016l0 0c0 20.534546 -16.646545 37.18109 -37.18109 37.18109l0 0c-20.534546 0 -37.18109 -16.646545 -37.18109 -37.18109z" fill-rule="evenodd"/><path stroke="#000000" stroke-width="1.0" stroke-linejoin="round" stroke-linecap="butt" d="m355.26773 296.0l0 0c0 -20.534546 16.646545 -37.18109 37.18109 -37.18109l0 0c9.861053 0 19.318207 3.9172668 26.291016 10.890076c6.972809 6.972809 10.890076 16.429962 10.890076 26.291016l0 0c0 20.534546 -16.646545 37.18109 -37.18109 37.18109l0 0c-20.534546 0 -37.18109 -16.646545 -37.18109 -37.18109z" fill-rule="evenodd"/><path fill="#000000" d="m386.7963 300.57l2.171875 -0.265625q0.25 1.90625 1.09375 2.734375q0.84375 0.8125 2.21875 0.8125q1.65625 0 2.859375 -1.1875q1.203125 -1.1875 1.203125 -2.71875q0 -1.34375 -0.90625 -2.203125q-0.890625 -0.875 -2.40625 -0.875q-0.1875 0 -0.71875 0.046875l0.375 -1.875q0.328125 0.046875 0.625 0.046875q1.90625 0 2.9375 -0.921875q1.046875 -0.9375 1.046875 -2.296875q0 -1.25 -0.859375 -2.09375q-0.84375 -0.859375 -2.0625 -0.859375q-1.203125 0 -2.171875 0.875q-0.953125 0.859375 -1.21875 2.453125l-2.203125 -0.4375q0.546875 -2.234375 2.09375 -3.453125q1.546875 -1.234375 3.65625 -1.234375q2.234375 0 3.609375 1.34375q1.375 1.34375 1.375 3.3125q0 1.4375 -0.75 2.515625q-0.75 1.0625 -2.234375 1.765625q1.0625 0.640625 1.578125 1.53125q0.53125 0.890625 0.53125 2.03125q0 2.4375 -1.828125 4.234375q-1.828125 1.78125 -4.359375 1.78125q-2.453125 0 -3.96875 -1.375q-1.515625 -1.390625 -1.6875 -3.6875z" fill-rule="nonzero"/><path fill="#000000" fill-opacity="0.0" d="m51.942257 90.91338l0 167.90552" fill-rule="evenodd"/><path stroke="#000000" stroke-width="1.0" stroke-linejoin="round" stroke-linecap="butt" d="m51.942257 90.91338l0 167.90552" fill-rule="evenodd"/><path fill="#000000" fill-opacity="0.0" d="m89.12336 53.745407l266.14175 0" fill-rule="evenodd"/><path stroke="#0000ff" stroke-width="8.0" stroke-linejoin="round" stroke-linecap="butt" d="m89.12336 53.745407l266.14175 0" fill-rule="evenodd"/><path fill="#000000" fill-opacity="0.0" d="m392.44882 90.91338l0 167.90552" fill-rule="evenodd"/><path stroke="#000000" stroke-width="1.0" stroke-linejoin="round" stroke-linecap="butt" d="m392.44882 90.91338l0 167.90552" fill-rule="evenodd"/><path fill="#000000" fill-opacity="0.0" d="m366.1578 322.29102l-106.77164 118.99213" fill-rule="evenodd"/><path stroke="#0000ff" stroke-width="8.0" stroke-linejoin="round" stroke-linecap="butt" d="m366.1578 322.29102l-106.77164 118.99213" fill-rule="evenodd"/><path fill="#000000" fill-opacity="0.0" d="m185.01443 441.29004l-106.77165 -118.99213" fill-rule="evenodd"/><path stroke="#000000" stroke-width="1.0" stroke-linejoin="round" stroke-linecap="butt" d="m185.01443 441.29004l-106.77165 -118.99213" fill-rule="evenodd"/><path fill="#000000" fill-opacity="0.0" d="m366.1578 269.70898l-287.937 -189.66928" fill-rule="evenodd"/><path stroke="#000000" stroke-width="1.0" stroke-linejoin="round" stroke-linecap="butt" d="m366.1578 269.70898l-287.937 -189.66928" fill-rule="evenodd"/><path fill="#000000" fill-opacity="0.0" d="m180.39633 16.564304l609.5748 0l0 42.015747l-609.5748 0z" fill-rule="evenodd"/><path fill="#000000" d="m193.8807 43.484303l2.125 -10.078125q-1.375 1.0625 -3.84375 1.71875l0.296875 -1.5q1.234375 -0.484375 2.4375 -1.28125q1.203125 -0.796875 1.796875 -1.390625q0.359375 -0.359375 0.6875 -0.875l0.96875 0l-2.796875 13.40625l-1.671875 0zm7.219467 -4.375q0 -1.703125 0.5 -3.453125q0.5 -1.75 1.125 -2.796875q0.625 -1.046875 1.28125 -1.640625q0.671875 -0.59375 1.3125 -0.859375q0.640625 -0.28125 1.421875 -0.28125q1.53125 0 2.546875 1.140625q1.03125 1.140625 1.03125 3.28125q0 2.21875 -0.703125 4.390625q-0.84375 2.5625 -2.34375 3.84375q-1.140625 0.984375 -2.609375 0.984375q-1.5 0 -2.53125 -1.171875q-1.03125 -1.1875 -1.03125 -3.4375zm1.59375 0.40625q0 1.234375 0.40625 1.921875q0.546875 0.96875 1.640625 0.96875q0.96875 0 1.75 -0.875q1.125 -1.21875 1.6875 -3.5625q0.578125 -2.359375 0.578125 -3.859375q0 -1.4375 -0.5625 -2.078125q-0.546875 -0.640625 -1.4375 -0.640625q-0.65625 0 -1.234375 0.34375q-0.5625 0.328125 -1.078125 1.15625q-0.75 1.15625 -1.296875 3.46875q-0.453125 1.953125 -0.453125 3.15625z" fill-rule="nonzero"/><path fill="#000000" fill-opacity="0.0" d="m14.199475 161.86613l61.73228 0l0 42.015762l-61.73228 0z" fill-rule="evenodd"/><path fill="#000000" d="m24.0901 177.17676l0 -1.578125l8.640625 0l0 1.28125q-1.28125 1.359375 -2.53125 3.609375q-1.25 2.25 -1.9375 4.625q-0.484375 1.671875 -0.625 3.671875l-1.6875 0q0.03125 -1.578125 0.625 -3.8125q0.59375 -2.234375 1.6875 -4.296875q1.109375 -2.078125 2.359375 -3.5l-6.53125 0zm15.516342 11.609375l0 -3.203125l-5.796875 0l0 -1.5l6.09375 -8.65625l1.34375 0l0 8.65625l1.796875 0l0 1.5l-1.796875 0l0 3.203125l-1.640625 0zm0 -4.703125l0 -6.015625l-4.1875 6.015625l4.1875 0z" fill-rule="nonzero"/><path fill="#000000" fill-opacity="0.0" d="m255.5538 93.698166l61.7323 0l0 42.015747l-61.7323 0z" fill-rule="evenodd"/><path fill="#000000" d="m265.44443 109.00879l0 -1.578125l8.640625 0l0 1.28125q-1.28125 1.359375 -2.53125 3.609375q-1.25 2.25 -1.9375 4.625q-0.484375 1.671875 -0.625 3.671875l-1.6875 0q0.03125 -1.578125 0.625 -3.8125q0.59375 -2.234375 1.6875 -4.296875q1.109375 -2.078125 2.359375 -3.5l-6.53125 0zm18.766357 1.53125l-1.625 0.125q-0.21875 -0.96875 -0.625 -1.40625q-0.65625 -0.703125 -1.640625 -0.703125q-0.78125 0 -1.375 0.4375q-0.765625 0.5625 -1.21875 1.65625q-0.453125 1.078125 -0.46875 3.078125q0.59375 -0.890625 1.453125 -1.328125q0.859375 -0.4375 1.796875 -0.4375q1.640625 0 2.78125 1.203125q1.15625 1.203125 1.15625 3.109375q0 1.265625 -0.546875 2.34375q-0.53125 1.078125 -1.484375 1.65625q-0.9375 0.578125 -2.140625 0.578125q-2.0625 0 -3.359375 -1.5q-1.28125 -1.515625 -1.28125 -4.984375q0 -3.875 1.421875 -5.625q1.25 -1.53125 3.375 -1.53125q1.5625 0 2.5625 0.890625q1.015625 0.875 1.21875 2.4375zm-6.6875 5.75q0 0.84375 0.359375 1.625q0.359375 0.765625 1.0 1.171875q0.640625 0.40625 1.359375 0.40625q1.03125 0 1.78125 -0.828125q0.75 -0.84375 0.75 -2.28125q0 -1.390625 -0.734375 -2.1875q-0.734375 -0.796875 -1.859375 -0.796875q-1.109375 0 -1.890625 0.796875q-0.765625 0.796875 -0.765625 2.09375z" fill-rule="nonzero"/><path fill="#000000" fill-opacity="0.0" d="m391.5538 157.69817l61.7323 0l0 42.015747l-61.7323 0z" fill-rule="evenodd"/><path fill="#000000" d="m409.94443 183.04004l0 1.578125l-8.828125 0q-0.015625 -0.59375 0.1875 -1.140625q0.34375 -0.90625 1.078125 -1.78125q0.75 -0.875 2.15625 -2.015625q2.171875 -1.78125 2.9375 -2.828125q0.765625 -1.046875 0.765625 -1.96875q0 -0.984375 -0.703125 -1.640625q-0.6875 -0.671875 -1.8125 -0.671875q-1.1875 0 -1.90625 0.71875q-0.703125 0.703125 -0.703125 1.953125l-1.6875 -0.171875q0.171875 -1.890625 1.296875 -2.875q1.140625 -0.984375 3.03125 -0.984375q1.921875 0 3.046875 1.0625q1.125 1.0625 1.125 2.640625q0 0.796875 -0.328125 1.578125q-0.328125 0.78125 -1.09375 1.640625q-0.75 0.84375 -2.53125 2.34375q-1.46875 1.234375 -1.890625 1.6875q-0.421875 0.4375 -0.6875 0.875l6.546875 0zm10.375732 0l0 1.578125l-8.828125 0q-0.015625 -0.59375 0.1875 -1.140625q0.34375 -0.90625 1.078125 -1.78125q0.75 -0.875 2.15625 -2.015625q2.171875 -1.78125 2.9375 -2.828125q0.765625 -1.046875 0.765625 -1.96875q0 -0.984375 -0.703125 -1.640625q-0.6875 -0.671875 -1.8125 -0.671875q-1.1875 0 -1.90625 0.71875q-0.703125 0.703125 -0.703125 1.953125l-1.6875 -0.171875q0.171875 -1.890625 1.296875 -2.875q1.140625 -0.984375 3.03125 -0.984375q1.921875 0 3.046875 1.0625q1.125 1.0625 1.125 2.640625q0 0.796875 -0.328125 1.578125q-0.328125 0.78125 -1.09375 1.640625q-0.75 0.84375 -2.53125 2.34375q-1.46875 1.234375 -1.890625 1.6875q-0.421875 0.4375 -0.6875 0.875l6.546875 0z" fill-rule="nonzero"/><path fill="#cfe2f3" d="m185.01443 441.29004l0 0c0 -20.534576 16.646545 -37.18112 37.181107 -37.18112l0 0c9.861038 0 19.318192 3.9172974 26.291 10.890106c6.972809 6.972809 10.890106 16.429962 10.890106 26.291016l0 0c0 20.534546 -16.64656 37.18109 -37.181107 37.18109l0 0c-20.534561 0 -37.181107 -16.646545 -37.181107 -37.18109z" fill-rule="evenodd"/><path stroke="#000000" stroke-width="1.0" stroke-linejoin="round" stroke-linecap="butt" d="m185.01443 441.29004l0 0c0 -20.534576 16.646545 -37.18112 37.181107 -37.18112l0 0c9.861038 0 19.318192 3.9172974 26.291 10.890106c6.972809 6.972809 10.890106 16.429962 10.890106 26.291016l0 0c0 20.534546 -16.64656 37.18109 -37.181107 37.18109l0 0c-20.534561 0 -37.181107 -16.646545 -37.181107 -37.18109z" fill-rule="evenodd"/><path fill="#000000" d="m222.71489 450.61002l0.984375 -4.625l-7.390625 0l0.46875 -2.21875l10.15625 -11.28125l1.828125 0l-2.421875 11.515625l2.546875 0l-0.40625 1.984375l-2.546875 0l-0.96875 4.625l-2.25 0zm1.390625 -6.609375l1.578125 -7.5625l-6.75 7.5625l5.171875 0z" fill-rule="nonzero"/><path fill="#000000" fill-opacity="0.0" d="m135.5538 93.698166l61.732285 0l0 42.015747l-61.732285 0z" fill-rule="evenodd"/><path fill="#000000" d="m153.83505 110.54004l-1.625 0.125q-0.21875 -0.96875 -0.625 -1.40625q-0.65625 -0.703125 -1.640625 -0.703125q-0.78125 0 -1.375 0.4375q-0.765625 0.5625 -1.21875 1.65625q-0.453125 1.078125 -0.46875 3.078125q0.59375 -0.890625 1.453125 -1.328125q0.859375 -0.4375 1.796875 -0.4375q1.640625 0 2.78125 1.203125q1.15625 1.203125 1.15625 3.109375q0 1.265625 -0.546875 2.34375q-0.53125 1.078125 -1.484375 1.65625q-0.9375 0.578125 -2.140625 0.578125q-2.0625 0 -3.359375 -1.5q-1.28125 -1.515625 -1.28125 -4.984375q0 -3.875 1.421875 -5.625q1.25 -1.53125 3.375 -1.53125q1.5625 0 2.5625 0.890625q1.015625 0.875 1.21875 2.4375zm-6.6875 5.75q0 0.84375 0.359375 1.625q0.359375 0.765625 1.0 1.171875q0.640625 0.40625 1.359375 0.40625q1.03125 0 1.78125 -0.828125q0.75 -0.84375 0.75 -2.28125q0 -1.390625 -0.734375 -2.1875q-0.734375 -0.796875 -1.859375 -0.796875q-1.109375 0 -1.890625 0.796875q-0.765625 0.796875 -0.765625 2.09375zm8.563217 -2.265625q0 -2.359375 0.484375 -3.796875q0.484375 -1.453125 1.4375 -2.234375q0.96875 -0.78125 2.421875 -0.78125q1.078125 0 1.890625 0.4375q0.8125 0.421875 1.328125 1.25q0.53125 0.8125 0.828125 1.984375q0.3125 1.15625 0.3125 3.140625q0 2.359375 -0.484375 3.8125q-0.484375 1.4375 -1.453125 2.234375q-0.953125 0.78125 -2.421875 0.78125q-1.921875 0 -3.03125 -1.390625q-1.3125 -1.671875 -1.3125 -5.4375zm1.671875 0q0 3.296875 0.765625 4.390625q0.78125 1.078125 1.90625 1.078125q1.140625 0 1.90625 -1.09375q0.765625 -1.09375 0.765625 -4.375q0 -3.296875 -0.765625 -4.375q-0.765625 -1.078125 -1.921875 -1.078125q-1.125 0 -1.796875 0.953125q-0.859375 1.21875 -0.859375 4.5z" fill-rule="nonzero"/><path fill="#000000" fill-opacity="0.0" d="m71.5538 133.69817l61.732285 0l0 42.015747l-61.732285 0z" fill-rule="evenodd"/><path fill="#000000" d="m89.94443 159.04004l0 1.578125l-8.828125 0q-0.015625 -0.59375 0.1875 -1.140625q0.34375 -0.90625 1.078125 -1.78125q0.75 -0.875 2.15625 -2.015625q2.171875 -1.78125 2.9375 -2.828125q0.765625 -1.046875 0.765625 -1.96875q0 -0.984375 -0.703125 -1.640625q-0.6875 -0.671875 -1.8125 -0.671875q-1.1875 0 -1.90625 0.71875q-0.703125 0.703125 -0.703125 1.953125l-1.6875 -0.171875q0.171875 -1.890625 1.296875 -2.875q1.140625 -0.984375 3.03125 -0.984375q1.921875 0 3.046875 1.0625q1.125 1.0625 1.125 2.640625q0 0.796875 -0.328125 1.578125q-0.328125 0.78125 -1.09375 1.640625q-0.75 0.84375 -2.53125 2.34375q-1.46875 1.234375 -1.890625 1.6875q-0.421875 0.4375 -0.6875 0.875l6.546875 0zm10.266342 -8.5l-1.625 0.125q-0.21875 -0.96875 -0.625 -1.40625q-0.65625 -0.703125 -1.640625 -0.703125q-0.78125 0 -1.375 0.4375q-0.765625 0.5625 -1.21875 1.65625q-0.453125 1.078125 -0.46875 3.078125q0.59375 -0.890625 1.453125 -1.328125q0.859375 -0.4375 1.796875 -0.4375q1.640625 0 2.78125 1.203125q1.15625 1.203125 1.15625 3.109375q0 1.265625 -0.546875 2.34375q-0.53125 1.078125 -1.484375 1.65625q-0.9375 0.578125 -2.140625 0.578125q-2.0625 0 -3.359375 -1.5q-1.28125 -1.515625 -1.28125 -4.984375q0 -3.875 1.421875 -5.625q1.25 -1.53125 3.375 -1.53125q1.5625 0 2.5625 0.890625q1.015625 0.875 1.21875 2.4375zm-6.6875 5.75q0 0.84375 0.359375 1.625q0.359375 0.765625 1.0 1.171875q0.640625 0.40625 1.359375 0.40625q1.03125 0 1.78125 -0.828125q0.75 -0.84375 0.75 -2.28125q0 -1.390625 -0.734375 -2.1875q-0.734375 -0.796875 -1.859375 -0.796875q-1.109375 0 -1.890625 0.796875q-0.765625 0.796875 -0.765625 2.09375z" fill-rule="nonzero"/><path fill="#000000" fill-opacity="0.0" d="m327.5538 133.69817l61.7323 0l0 42.015747l-61.7323 0z" fill-rule="evenodd"/><path fill="#000000" d="m339.85068 153.38379q-1.015625 -0.375 -1.515625 -1.0625q-0.484375 -0.703125 -0.484375 -1.671875q0 -1.453125 1.046875 -2.4375q1.046875 -1.0 2.78125 -1.0q1.75 0 2.8125 1.015625q1.078125 1.015625 1.078125 2.46875q0 0.9375 -0.5 1.625q-0.484375 0.6875 -1.46875 1.0625q1.21875 0.390625 1.859375 1.28125q0.65625 0.890625 0.65625 2.140625q0 1.703125 -1.21875 2.875q-1.21875 1.171875 -3.1875 1.171875q-1.984375 0 -3.203125 -1.171875q-1.203125 -1.171875 -1.203125 -2.921875q0 -1.3125 0.65625 -2.1875q0.671875 -0.875 1.890625 -1.1875zm-0.328125 -2.78125q0 0.9375 0.609375 1.546875q0.609375 0.59375 1.59375 0.59375q0.9375 0 1.546875 -0.59375q0.609375 -0.59375 0.609375 -1.453125q0 -0.90625 -0.625 -1.515625q-0.625 -0.625 -1.5625 -0.625q-0.9375 0 -1.5625 0.609375q-0.609375 0.59375 -0.609375 1.4375zm-0.53125 6.15625q0 0.703125 0.328125 1.359375q0.34375 0.65625 1.0 1.015625q0.65625 0.359375 1.40625 0.359375q1.171875 0 1.9375 -0.75q0.765625 -0.75 0.765625 -1.921875q0 -1.1875 -0.796875 -1.953125q-0.78125 -0.78125 -1.953125 -0.78125q-1.15625 0 -1.921875 0.765625q-0.765625 0.765625 -0.765625 1.90625zm14.891357 3.859375l-1.640625 0l0 -10.453125q-0.59375 0.5625 -1.5625 1.140625q-0.953125 0.5625 -1.71875 0.84375l0 -1.59375q1.375 -0.640625 2.40625 -1.5625q1.03125 -0.921875 1.453125 -1.78125l1.0625 0l0 13.40625z" fill-rule="nonzero"/><path fill="#000000" fill-opacity="0.0" d="m195.90453 414.99902l-117.66929 -334.96063" fill-rule="evenodd"/><path stroke="#0000ff" stroke-width="8.0" stroke-linejoin="round" stroke-linecap="butt" d="m195.90453 414.99902l-117.66929 -334.96063" fill-rule="evenodd"/><path fill="#000000" fill-opacity="0.0" d="m78.23327 269.70898l281.3228 -199.05511" fill-rule="evenodd"/><path stroke="#0000ff" stroke-width="8.0" stroke-linejoin="round" stroke-linecap="butt" d="m78.23327 269.70898l281.3228 -199.05511" fill-rule="evenodd"/><path fill="#000000" fill-opacity="0.0" d="m89.12336 296.0l266.14175 0" fill-rule="evenodd"/><path stroke="#0000ff" stroke-width="8.0" stroke-linejoin="round" stroke-linecap="butt" d="m89.12336 296.0l266.14175 0" fill-rule="evenodd"/><path fill="#000000" fill-opacity="0.0" d="m248.48654 414.99902l143.9685 -324.063" fill-rule="evenodd"/><path stroke="#000000" stroke-width="1.0" stroke-linejoin="round" stroke-linecap="butt" d="m248.48654 414.99902l143.9685 -324.063" fill-rule="evenodd"/><path fill="#000000" fill-opacity="0.0" d="m207.5538 261.69815l61.7323 0l0 42.015747l-61.7323 0z" fill-rule="evenodd"/><path fill="#000000" d="m225.83505 278.54004l-1.625 0.125q-0.21875 -0.96875 -0.625 -1.40625q-0.65625 -0.703125 -1.640625 -0.703125q-0.78125 0 -1.375 0.4375q-0.765625 0.5625 -1.21875 1.65625q-0.453125 1.078125 -0.46875 3.078125q0.59375 -0.890625 1.453125 -1.328125q0.859375 -0.4375 1.796875 -0.4375q1.640625 0 2.78125 1.203125q1.15625 1.203125 1.15625 3.109375q0 1.265625 -0.546875 2.34375q-0.53125 1.078125 -1.484375 1.65625q-0.9375 0.578125 -2.140625 0.578125q-2.0625 0 -3.359375 -1.5q-1.28125 -1.515625 -1.28125 -4.984375q0 -3.875 1.421875 -5.625q1.25 -1.53125 3.375 -1.53125q1.5625 0 2.5625 0.890625q1.015625 0.875 1.21875 2.4375zm-6.6875 5.75q0 0.84375 0.359375 1.625q0.359375 0.765625 1.0 1.171875q0.640625 0.40625 1.359375 0.40625q1.03125 0 1.78125 -0.828125q0.75 -0.84375 0.75 -2.28125q0 -1.390625 -0.734375 -2.1875q-0.734375 -0.796875 -1.859375 -0.796875q-1.109375 0 -1.890625 0.796875q-0.765625 0.796875 -0.765625 2.09375zm8.797592 1.234375l1.578125 -0.140625q0.203125 1.109375 0.765625 1.609375q0.5625 0.5 1.453125 0.5q0.75 0 1.3125 -0.34375q0.578125 -0.34375 0.9375 -0.921875q0.375 -0.578125 0.609375 -1.5625q0.25 -0.984375 0.25 -2.0q0 -0.109375 0 -0.328125q-0.5 0.78125 -1.359375 1.265625q-0.84375 0.484375 -1.828125 0.484375q-1.671875 0 -2.8125 -1.203125q-1.140625 -1.203125 -1.140625 -3.171875q0 -2.03125 1.1875 -3.265625q1.203125 -1.234375 3.0 -1.234375q1.3125 0 2.390625 0.703125q1.078125 0.703125 1.640625 2.0q0.5625 1.296875 0.5625 3.75q0 2.5625 -0.5625 4.078125q-0.5625 1.515625 -1.65625 2.3125q-1.09375 0.796875 -2.578125 0.796875q-1.5625 0 -2.5625 -0.875q-0.984375 -0.875 -1.1875 -2.453125zm6.71875 -5.890625q0 -1.40625 -0.75 -2.234375q-0.75 -0.828125 -1.8125 -0.828125q-1.09375 0 -1.90625 0.890625q-0.8125 0.890625 -0.8125 2.3125q0 1.28125 0.765625 2.078125q0.78125 0.796875 1.90625 0.796875q1.140625 0 1.875 -0.796875q0.734375 -0.796875 0.734375 -2.21875z" fill-rule="nonzero"/><path fill="#000000" fill-opacity="0.0" d="m95.5538 365.69815l61.732285 0l0 42.015747l-61.732285 0z" fill-rule="evenodd"/><path fill="#000000" d="m107.85068 385.3838q-1.015625 -0.375 -1.515625 -1.0625q-0.484375 -0.703125 -0.484375 -1.671875q0 -1.453125 1.046875 -2.4375q1.046875 -1.0 2.78125 -1.0q1.75 0 2.8125 1.015625q1.078125 1.015625 1.078125 2.46875q0 0.9375 -0.5 1.625q-0.484375 0.6875 -1.46875 1.0625q1.21875 0.390625 1.859375 1.28125q0.65625 0.890625 0.65625 2.140625q0 1.703125 -1.21875 2.875q-1.21875 1.171875 -3.1875 1.171875q-1.984375 0 -3.203125 -1.171875q-1.203125 -1.171875 -1.203125 -2.921875q0 -1.3125 0.65625 -2.1875q0.671875 -0.875 1.890625 -1.1875zm-0.328125 -2.78125q0 0.9375 0.609375 1.546875q0.609375 0.59375 1.59375 0.59375q0.9375 0 1.546875 -0.59375q0.609375 -0.59375 0.609375 -1.453125q0 -0.90625 -0.625 -1.515625q-0.625 -0.625 -1.5625 -0.625q-0.9375 0 -1.5625 0.609375q-0.609375 0.59375 -0.609375 1.4375zm-0.53125 6.15625q0 0.703125 0.328125 1.359375q0.34375 0.65625 1.0 1.015625q0.65625 0.359375 1.40625 0.359375q1.171875 0 1.9375 -0.75q0.765625 -0.75 0.765625 -1.921875q0 -1.1875 -0.796875 -1.953125q-0.78125 -0.78125 -1.953125 -0.78125q-1.15625 0 -1.921875 0.765625q-0.765625 0.765625 -0.765625 1.90625zm13.969467 3.859375l0 -3.203125l-5.796875 0l0 -1.5l6.09375 -8.65625l1.34375 0l0 8.65625l1.796875 0l0 1.5l-1.796875 0l0 3.203125l-1.640625 0zm0 -4.703125l0 -6.015625l-4.1875 6.015625l4.1875 0z" fill-rule="nonzero"/><path fill="#000000" fill-opacity="0.0" d="m311.5538 365.69815l61.7323 0l0 42.015747l-61.7323 0z" fill-rule="evenodd"/><path fill="#000000" d="m321.33505 389.0869l1.640625 -0.21875q0.28125 1.40625 0.953125 2.015625q0.6875 0.609375 1.65625 0.609375q1.15625 0 1.953125 -0.796875q0.796875 -0.796875 0.796875 -1.984375q0 -1.125 -0.734375 -1.859375q-0.734375 -0.734375 -1.875 -0.734375q-0.46875 0 -1.15625 0.171875l0.1875 -1.4375q0.15625 0.015625 0.265625 0.015625q1.046875 0 1.875 -0.546875q0.84375 -0.546875 0.84375 -1.671875q0 -0.90625 -0.609375 -1.5q-0.609375 -0.59375 -1.578125 -0.59375q-0.953125 0 -1.59375 0.609375q-0.640625 0.59375 -0.8125 1.796875l-1.640625 -0.296875q0.296875 -1.640625 1.359375 -2.546875q1.0625 -0.90625 2.65625 -0.90625q1.09375 0 2.0 0.46875q0.921875 0.46875 1.40625 1.28125q0.5 0.8125 0.5 1.71875q0 0.859375 -0.46875 1.578125q-0.46875 0.703125 -1.375 1.125q1.1875 0.28125 1.84375 1.140625q0.65625 0.859375 0.65625 2.15625q0 1.734375 -1.28125 2.953125q-1.265625 1.21875 -3.21875 1.21875q-1.765625 0 -2.921875 -1.046875q-1.15625 -1.046875 -1.328125 -2.71875zm10.375732 -3.0625q0 -2.359375 0.484375 -3.796875q0.484375 -1.453125 1.4375 -2.234375q0.96875 -0.78125 2.421875 -0.78125q1.078125 0 1.890625 0.4375q0.8125 0.421875 1.328125 1.25q0.53125 0.8125 0.828125 1.984375q0.3125 1.15625 0.3125 3.140625q0 2.359375 -0.484375 3.8125q-0.484375 1.4375 -1.453125 2.234375q-0.953125 0.78125 -2.421875 0.78125q-1.921875 0 -3.03125 -1.390625q-1.3125 -1.671875 -1.3125 -5.4375zm1.671875 0q0 3.296875 0.765625 4.390625q0.78125 1.078125 1.90625 1.078125q1.140625 0 1.90625 -1.09375q0.765625 -1.09375 0.765625 -4.375q0 -3.296875 -0.765625 -4.375q-0.765625 -1.078125 -1.921875 -1.078125q-1.125 0 -1.796875 0.953125q-0.859375 1.21875 -0.859375 4.5z" fill-rule="nonzero"/></g></svg>